<?xml version="1.0" encoding="utf-8" standalone="no"?>
<!DOCTYPE svg PUBLIC "-//W3C//DTD SVG 1.1//EN"
  "http://www.w3.org/Graphics/SVG/1.1/DTD/svg11.dtd">
<svg xmlns:xlink="http://www.w3.org/1999/xlink" width="864pt" height="288pt" viewBox="0 0 864 288" xmlns="http://www.w3.org/2000/svg" version="1.1">
 <metadata>
  <rdf:RDF xmlns:dc="http://purl.org/dc/elements/1.1/" xmlns:cc="http://creativecommons.org/ns#" xmlns:rdf="http://www.w3.org/1999/02/22-rdf-syntax-ns#">
   <cc:Work>
    <dc:type rdf:resource="http://purl.org/dc/dcmitype/StillImage"/>
    <dc:date>2024-08-16T14:42:56.774864</dc:date>
    <dc:format>image/svg+xml</dc:format>
    <dc:creator>
     <cc:Agent>
      <dc:title>Matplotlib v3.8.4, https://matplotlib.org/</dc:title>
     </cc:Agent>
    </dc:creator>
   </cc:Work>
  </rdf:RDF>
 </metadata>
 <defs>
  <style type="text/css">*{stroke-linejoin: round; stroke-linecap: butt}</style>
 </defs>
 <g id="figure_1">
  <g id="patch_1">
   <path d="M 0 288 
L 864 288 
L 864 0 
L 0 0 
z
" style="fill: #ffffff"/>
  </g>
  <g id="axes_1">
   <g id="patch_2">
    <path d="M 108 256.32 
L 304.941176 256.32 
L 304.941176 34.56 
L 108 34.56 
z
" style="fill: #ffffff"/>
   </g>
   <g id="matplotlib.axis_1">
    <g id="xtick_1">
     <g id="line2d_1">
      <defs>
       <path id="mcea227b817" d="M 0 0 
L 0 3.5 
" style="stroke: #000000; stroke-width: 0.8"/>
      </defs>
      <g>
       <use xlink:href="#mcea227b817" x="116.951872" y="256.32" style="stroke: #000000; stroke-width: 0.8"/>
      </g>
     </g>
     <g id="text_1">
      <!-- 0 -->
      <g transform="translate(113.770622 270.918437) scale(0.1 -0.1)">
       <defs>
        <path id="DejaVuSans-30" d="M 2034 4250 
Q 1547 4250 1301 3770 
Q 1056 3291 1056 2328 
Q 1056 1369 1301 889 
Q 1547 409 2034 409 
Q 2525 409 2770 889 
Q 3016 1369 3016 2328 
Q 3016 3291 2770 3770 
Q 2525 4250 2034 4250 
z
M 2034 4750 
Q 2819 4750 3233 4129 
Q 3647 3509 3647 2328 
Q 3647 1150 3233 529 
Q 2819 -91 2034 -91 
Q 1250 -91 836 529 
Q 422 1150 422 2328 
Q 422 3509 836 4129 
Q 1250 4750 2034 4750 
z
" transform="scale(0.015625)"/>
       </defs>
       <use xlink:href="#DejaVuSans-30"/>
      </g>
     </g>
    </g>
    <g id="xtick_2">
     <g id="line2d_2">
      <g>
       <use xlink:href="#mcea227b817" x="161.71123" y="256.32" style="stroke: #000000; stroke-width: 0.8"/>
      </g>
     </g>
     <g id="text_2">
      <!-- 100 -->
      <g transform="translate(152.16748 270.918437) scale(0.1 -0.1)">
       <defs>
        <path id="DejaVuSans-31" d="M 794 531 
L 1825 531 
L 1825 4091 
L 703 3866 
L 703 4441 
L 1819 4666 
L 2450 4666 
L 2450 531 
L 3481 531 
L 3481 0 
L 794 0 
L 794 531 
z
" transform="scale(0.015625)"/>
       </defs>
       <use xlink:href="#DejaVuSans-31"/>
       <use xlink:href="#DejaVuSans-30" x="63.623047"/>
       <use xlink:href="#DejaVuSans-30" x="127.246094"/>
      </g>
     </g>
    </g>
    <g id="xtick_3">
     <g id="line2d_3">
      <g>
       <use xlink:href="#mcea227b817" x="206.470588" y="256.32" style="stroke: #000000; stroke-width: 0.8"/>
      </g>
     </g>
     <g id="text_3">
      <!-- 200 -->
      <g transform="translate(196.926838 270.918437) scale(0.1 -0.1)">
       <defs>
        <path id="DejaVuSans-32" d="M 1228 531 
L 3431 531 
L 3431 0 
L 469 0 
L 469 531 
Q 828 903 1448 1529 
Q 2069 2156 2228 2338 
Q 2531 2678 2651 2914 
Q 2772 3150 2772 3378 
Q 2772 3750 2511 3984 
Q 2250 4219 1831 4219 
Q 1534 4219 1204 4116 
Q 875 4013 500 3803 
L 500 4441 
Q 881 4594 1212 4672 
Q 1544 4750 1819 4750 
Q 2544 4750 2975 4387 
Q 3406 4025 3406 3419 
Q 3406 3131 3298 2873 
Q 3191 2616 2906 2266 
Q 2828 2175 2409 1742 
Q 1991 1309 1228 531 
z
" transform="scale(0.015625)"/>
       </defs>
       <use xlink:href="#DejaVuSans-32"/>
       <use xlink:href="#DejaVuSans-30" x="63.623047"/>
       <use xlink:href="#DejaVuSans-30" x="127.246094"/>
      </g>
     </g>
    </g>
    <g id="xtick_4">
     <g id="line2d_4">
      <g>
       <use xlink:href="#mcea227b817" x="251.229947" y="256.32" style="stroke: #000000; stroke-width: 0.8"/>
      </g>
     </g>
     <g id="text_4">
      <!-- 300 -->
      <g transform="translate(241.686197 270.918437) scale(0.1 -0.1)">
       <defs>
        <path id="DejaVuSans-33" d="M 2597 2516 
Q 3050 2419 3304 2112 
Q 3559 1806 3559 1356 
Q 3559 666 3084 287 
Q 2609 -91 1734 -91 
Q 1441 -91 1130 -33 
Q 819 25 488 141 
L 488 750 
Q 750 597 1062 519 
Q 1375 441 1716 441 
Q 2309 441 2620 675 
Q 2931 909 2931 1356 
Q 2931 1769 2642 2001 
Q 2353 2234 1838 2234 
L 1294 2234 
L 1294 2753 
L 1863 2753 
Q 2328 2753 2575 2939 
Q 2822 3125 2822 3475 
Q 2822 3834 2567 4026 
Q 2313 4219 1838 4219 
Q 1578 4219 1281 4162 
Q 984 4106 628 3988 
L 628 4550 
Q 988 4650 1302 4700 
Q 1616 4750 1894 4750 
Q 2613 4750 3031 4423 
Q 3450 4097 3450 3541 
Q 3450 3153 3228 2886 
Q 3006 2619 2597 2516 
z
" transform="scale(0.015625)"/>
       </defs>
       <use xlink:href="#DejaVuSans-33"/>
       <use xlink:href="#DejaVuSans-30" x="63.623047"/>
       <use xlink:href="#DejaVuSans-30" x="127.246094"/>
      </g>
     </g>
    </g>
    <g id="xtick_5">
     <g id="line2d_5">
      <g>
       <use xlink:href="#mcea227b817" x="295.989305" y="256.32" style="stroke: #000000; stroke-width: 0.8"/>
      </g>
     </g>
     <g id="text_5">
      <!-- 400 -->
      <g transform="translate(286.445555 270.918437) scale(0.1 -0.1)">
       <defs>
        <path id="DejaVuSans-34" d="M 2419 4116 
L 825 1625 
L 2419 1625 
L 2419 4116 
z
M 2253 4666 
L 3047 4666 
L 3047 1625 
L 3713 1625 
L 3713 1100 
L 3047 1100 
L 3047 0 
L 2419 0 
L 2419 1100 
L 313 1100 
L 313 1709 
L 2253 4666 
z
" transform="scale(0.015625)"/>
       </defs>
       <use xlink:href="#DejaVuSans-34"/>
       <use xlink:href="#DejaVuSans-30" x="63.623047"/>
       <use xlink:href="#DejaVuSans-30" x="127.246094"/>
      </g>
     </g>
    </g>
    <g id="text_6">
     <!-- Time in (s) -->
     <g transform="translate(179.994807 284.596563) scale(0.1 -0.1)">
      <defs>
       <path id="DejaVuSans-54" d="M -19 4666 
L 3928 4666 
L 3928 4134 
L 2272 4134 
L 2272 0 
L 1638 0 
L 1638 4134 
L -19 4134 
L -19 4666 
z
" transform="scale(0.015625)"/>
       <path id="DejaVuSans-69" d="M 603 3500 
L 1178 3500 
L 1178 0 
L 603 0 
L 603 3500 
z
M 603 4863 
L 1178 4863 
L 1178 4134 
L 603 4134 
L 603 4863 
z
" transform="scale(0.015625)"/>
       <path id="DejaVuSans-6d" d="M 3328 2828 
Q 3544 3216 3844 3400 
Q 4144 3584 4550 3584 
Q 5097 3584 5394 3201 
Q 5691 2819 5691 2113 
L 5691 0 
L 5113 0 
L 5113 2094 
Q 5113 2597 4934 2840 
Q 4756 3084 4391 3084 
Q 3944 3084 3684 2787 
Q 3425 2491 3425 1978 
L 3425 0 
L 2847 0 
L 2847 2094 
Q 2847 2600 2669 2842 
Q 2491 3084 2119 3084 
Q 1678 3084 1418 2786 
Q 1159 2488 1159 1978 
L 1159 0 
L 581 0 
L 581 3500 
L 1159 3500 
L 1159 2956 
Q 1356 3278 1631 3431 
Q 1906 3584 2284 3584 
Q 2666 3584 2933 3390 
Q 3200 3197 3328 2828 
z
" transform="scale(0.015625)"/>
       <path id="DejaVuSans-65" d="M 3597 1894 
L 3597 1613 
L 953 1613 
Q 991 1019 1311 708 
Q 1631 397 2203 397 
Q 2534 397 2845 478 
Q 3156 559 3463 722 
L 3463 178 
Q 3153 47 2828 -22 
Q 2503 -91 2169 -91 
Q 1331 -91 842 396 
Q 353 884 353 1716 
Q 353 2575 817 3079 
Q 1281 3584 2069 3584 
Q 2775 3584 3186 3129 
Q 3597 2675 3597 1894 
z
M 3022 2063 
Q 3016 2534 2758 2815 
Q 2500 3097 2075 3097 
Q 1594 3097 1305 2825 
Q 1016 2553 972 2059 
L 3022 2063 
z
" transform="scale(0.015625)"/>
       <path id="DejaVuSans-20" transform="scale(0.015625)"/>
       <path id="DejaVuSans-6e" d="M 3513 2113 
L 3513 0 
L 2938 0 
L 2938 2094 
Q 2938 2591 2744 2837 
Q 2550 3084 2163 3084 
Q 1697 3084 1428 2787 
Q 1159 2491 1159 1978 
L 1159 0 
L 581 0 
L 581 3500 
L 1159 3500 
L 1159 2956 
Q 1366 3272 1645 3428 
Q 1925 3584 2291 3584 
Q 2894 3584 3203 3211 
Q 3513 2838 3513 2113 
z
" transform="scale(0.015625)"/>
       <path id="DejaVuSans-28" d="M 1984 4856 
Q 1566 4138 1362 3434 
Q 1159 2731 1159 2009 
Q 1159 1288 1364 580 
Q 1569 -128 1984 -844 
L 1484 -844 
Q 1016 -109 783 600 
Q 550 1309 550 2009 
Q 550 2706 781 3412 
Q 1013 4119 1484 4856 
L 1984 4856 
z
" transform="scale(0.015625)"/>
       <path id="DejaVuSans-73" d="M 2834 3397 
L 2834 2853 
Q 2591 2978 2328 3040 
Q 2066 3103 1784 3103 
Q 1356 3103 1142 2972 
Q 928 2841 928 2578 
Q 928 2378 1081 2264 
Q 1234 2150 1697 2047 
L 1894 2003 
Q 2506 1872 2764 1633 
Q 3022 1394 3022 966 
Q 3022 478 2636 193 
Q 2250 -91 1575 -91 
Q 1294 -91 989 -36 
Q 684 19 347 128 
L 347 722 
Q 666 556 975 473 
Q 1284 391 1588 391 
Q 1994 391 2212 530 
Q 2431 669 2431 922 
Q 2431 1156 2273 1281 
Q 2116 1406 1581 1522 
L 1381 1569 
Q 847 1681 609 1914 
Q 372 2147 372 2553 
Q 372 3047 722 3315 
Q 1072 3584 1716 3584 
Q 2034 3584 2315 3537 
Q 2597 3491 2834 3397 
z
" transform="scale(0.015625)"/>
       <path id="DejaVuSans-29" d="M 513 4856 
L 1013 4856 
Q 1481 4119 1714 3412 
Q 1947 2706 1947 2009 
Q 1947 1309 1714 600 
Q 1481 -109 1013 -844 
L 513 -844 
Q 928 -128 1133 580 
Q 1338 1288 1338 2009 
Q 1338 2731 1133 3434 
Q 928 4138 513 4856 
z
" transform="scale(0.015625)"/>
      </defs>
      <use xlink:href="#DejaVuSans-54"/>
      <use xlink:href="#DejaVuSans-69" x="57.958984"/>
      <use xlink:href="#DejaVuSans-6d" x="85.742188"/>
      <use xlink:href="#DejaVuSans-65" x="183.154297"/>
      <use xlink:href="#DejaVuSans-20" x="244.677734"/>
      <use xlink:href="#DejaVuSans-69" x="276.464844"/>
      <use xlink:href="#DejaVuSans-6e" x="304.248047"/>
      <use xlink:href="#DejaVuSans-20" x="367.626953"/>
      <use xlink:href="#DejaVuSans-28" x="399.414062"/>
      <use xlink:href="#DejaVuSans-73" x="438.427734"/>
      <use xlink:href="#DejaVuSans-29" x="490.527344"/>
     </g>
    </g>
   </g>
   <g id="matplotlib.axis_2">
    <g id="ytick_1">
     <g id="line2d_6">
      <defs>
       <path id="m4f6a2855bf" d="M 0 0 
L -3.5 0 
" style="stroke: #000000; stroke-width: 0.8"/>
      </defs>
      <g>
       <use xlink:href="#m4f6a2855bf" x="108" y="252.038552" style="stroke: #000000; stroke-width: 0.8"/>
      </g>
     </g>
     <g id="text_7">
      <!-- 0 -->
      <g transform="translate(94.6375 255.837771) scale(0.1 -0.1)">
       <use xlink:href="#DejaVuSans-30"/>
      </g>
     </g>
    </g>
    <g id="ytick_2">
     <g id="line2d_7">
      <g>
       <use xlink:href="#m4f6a2855bf" x="108" y="213.544972" style="stroke: #000000; stroke-width: 0.8"/>
      </g>
     </g>
     <g id="text_8">
      <!-- 1 -->
      <g transform="translate(94.6375 217.344191) scale(0.1 -0.1)">
       <use xlink:href="#DejaVuSans-31"/>
      </g>
     </g>
    </g>
    <g id="ytick_3">
     <g id="line2d_8">
      <g>
       <use xlink:href="#m4f6a2855bf" x="108" y="175.051392" style="stroke: #000000; stroke-width: 0.8"/>
      </g>
     </g>
     <g id="text_9">
      <!-- 2 -->
      <g transform="translate(94.6375 178.850611) scale(0.1 -0.1)">
       <use xlink:href="#DejaVuSans-32"/>
      </g>
     </g>
    </g>
    <g id="ytick_4">
     <g id="line2d_9">
      <g>
       <use xlink:href="#m4f6a2855bf" x="108" y="136.557812" style="stroke: #000000; stroke-width: 0.8"/>
      </g>
     </g>
     <g id="text_10">
      <!-- 3 -->
      <g transform="translate(94.6375 140.357031) scale(0.1 -0.1)">
       <use xlink:href="#DejaVuSans-33"/>
      </g>
     </g>
    </g>
    <g id="ytick_5">
     <g id="line2d_10">
      <g>
       <use xlink:href="#m4f6a2855bf" x="108" y="98.064232" style="stroke: #000000; stroke-width: 0.8"/>
      </g>
     </g>
     <g id="text_11">
      <!-- 4 -->
      <g transform="translate(94.6375 101.863451) scale(0.1 -0.1)">
       <use xlink:href="#DejaVuSans-34"/>
      </g>
     </g>
    </g>
    <g id="ytick_6">
     <g id="line2d_11">
      <g>
       <use xlink:href="#m4f6a2855bf" x="108" y="59.570652" style="stroke: #000000; stroke-width: 0.8"/>
      </g>
     </g>
     <g id="text_12">
      <!-- 5 -->
      <g transform="translate(94.6375 63.369871) scale(0.1 -0.1)">
       <defs>
        <path id="DejaVuSans-35" d="M 691 4666 
L 3169 4666 
L 3169 4134 
L 1269 4134 
L 1269 2991 
Q 1406 3038 1543 3061 
Q 1681 3084 1819 3084 
Q 2600 3084 3056 2656 
Q 3513 2228 3513 1497 
Q 3513 744 3044 326 
Q 2575 -91 1722 -91 
Q 1428 -91 1123 -41 
Q 819 9 494 109 
L 494 744 
Q 775 591 1075 516 
Q 1375 441 1709 441 
Q 2250 441 2565 725 
Q 2881 1009 2881 1497 
Q 2881 1984 2565 2268 
Q 2250 2553 1709 2553 
Q 1456 2553 1204 2497 
Q 953 2441 691 2322 
L 691 4666 
z
" transform="scale(0.015625)"/>
       </defs>
       <use xlink:href="#DejaVuSans-35"/>
      </g>
     </g>
    </g>
    <g id="text_13">
     <!-- Concentration in (mM) -->
     <g transform="translate(88.557812 201.632969) rotate(-90) scale(0.1 -0.1)">
      <defs>
       <path id="DejaVuSans-43" d="M 4122 4306 
L 4122 3641 
Q 3803 3938 3442 4084 
Q 3081 4231 2675 4231 
Q 1875 4231 1450 3742 
Q 1025 3253 1025 2328 
Q 1025 1406 1450 917 
Q 1875 428 2675 428 
Q 3081 428 3442 575 
Q 3803 722 4122 1019 
L 4122 359 
Q 3791 134 3420 21 
Q 3050 -91 2638 -91 
Q 1578 -91 968 557 
Q 359 1206 359 2328 
Q 359 3453 968 4101 
Q 1578 4750 2638 4750 
Q 3056 4750 3426 4639 
Q 3797 4528 4122 4306 
z
" transform="scale(0.015625)"/>
       <path id="DejaVuSans-6f" d="M 1959 3097 
Q 1497 3097 1228 2736 
Q 959 2375 959 1747 
Q 959 1119 1226 758 
Q 1494 397 1959 397 
Q 2419 397 2687 759 
Q 2956 1122 2956 1747 
Q 2956 2369 2687 2733 
Q 2419 3097 1959 3097 
z
M 1959 3584 
Q 2709 3584 3137 3096 
Q 3566 2609 3566 1747 
Q 3566 888 3137 398 
Q 2709 -91 1959 -91 
Q 1206 -91 779 398 
Q 353 888 353 1747 
Q 353 2609 779 3096 
Q 1206 3584 1959 3584 
z
" transform="scale(0.015625)"/>
       <path id="DejaVuSans-63" d="M 3122 3366 
L 3122 2828 
Q 2878 2963 2633 3030 
Q 2388 3097 2138 3097 
Q 1578 3097 1268 2742 
Q 959 2388 959 1747 
Q 959 1106 1268 751 
Q 1578 397 2138 397 
Q 2388 397 2633 464 
Q 2878 531 3122 666 
L 3122 134 
Q 2881 22 2623 -34 
Q 2366 -91 2075 -91 
Q 1284 -91 818 406 
Q 353 903 353 1747 
Q 353 2603 823 3093 
Q 1294 3584 2113 3584 
Q 2378 3584 2631 3529 
Q 2884 3475 3122 3366 
z
" transform="scale(0.015625)"/>
       <path id="DejaVuSans-74" d="M 1172 4494 
L 1172 3500 
L 2356 3500 
L 2356 3053 
L 1172 3053 
L 1172 1153 
Q 1172 725 1289 603 
Q 1406 481 1766 481 
L 2356 481 
L 2356 0 
L 1766 0 
Q 1100 0 847 248 
Q 594 497 594 1153 
L 594 3053 
L 172 3053 
L 172 3500 
L 594 3500 
L 594 4494 
L 1172 4494 
z
" transform="scale(0.015625)"/>
       <path id="DejaVuSans-72" d="M 2631 2963 
Q 2534 3019 2420 3045 
Q 2306 3072 2169 3072 
Q 1681 3072 1420 2755 
Q 1159 2438 1159 1844 
L 1159 0 
L 581 0 
L 581 3500 
L 1159 3500 
L 1159 2956 
Q 1341 3275 1631 3429 
Q 1922 3584 2338 3584 
Q 2397 3584 2469 3576 
Q 2541 3569 2628 3553 
L 2631 2963 
z
" transform="scale(0.015625)"/>
       <path id="DejaVuSans-61" d="M 2194 1759 
Q 1497 1759 1228 1600 
Q 959 1441 959 1056 
Q 959 750 1161 570 
Q 1363 391 1709 391 
Q 2188 391 2477 730 
Q 2766 1069 2766 1631 
L 2766 1759 
L 2194 1759 
z
M 3341 1997 
L 3341 0 
L 2766 0 
L 2766 531 
Q 2569 213 2275 61 
Q 1981 -91 1556 -91 
Q 1019 -91 701 211 
Q 384 513 384 1019 
Q 384 1609 779 1909 
Q 1175 2209 1959 2209 
L 2766 2209 
L 2766 2266 
Q 2766 2663 2505 2880 
Q 2244 3097 1772 3097 
Q 1472 3097 1187 3025 
Q 903 2953 641 2809 
L 641 3341 
Q 956 3463 1253 3523 
Q 1550 3584 1831 3584 
Q 2591 3584 2966 3190 
Q 3341 2797 3341 1997 
z
" transform="scale(0.015625)"/>
       <path id="DejaVuSans-4d" d="M 628 4666 
L 1569 4666 
L 2759 1491 
L 3956 4666 
L 4897 4666 
L 4897 0 
L 4281 0 
L 4281 4097 
L 3078 897 
L 2444 897 
L 1241 4097 
L 1241 0 
L 628 0 
L 628 4666 
z
" transform="scale(0.015625)"/>
      </defs>
      <use xlink:href="#DejaVuSans-43"/>
      <use xlink:href="#DejaVuSans-6f" x="69.824219"/>
      <use xlink:href="#DejaVuSans-6e" x="131.005859"/>
      <use xlink:href="#DejaVuSans-63" x="194.384766"/>
      <use xlink:href="#DejaVuSans-65" x="249.365234"/>
      <use xlink:href="#DejaVuSans-6e" x="310.888672"/>
      <use xlink:href="#DejaVuSans-74" x="374.267578"/>
      <use xlink:href="#DejaVuSans-72" x="413.476562"/>
      <use xlink:href="#DejaVuSans-61" x="454.589844"/>
      <use xlink:href="#DejaVuSans-74" x="515.869141"/>
      <use xlink:href="#DejaVuSans-69" x="555.078125"/>
      <use xlink:href="#DejaVuSans-6f" x="582.861328"/>
      <use xlink:href="#DejaVuSans-6e" x="644.042969"/>
      <use xlink:href="#DejaVuSans-20" x="707.421875"/>
      <use xlink:href="#DejaVuSans-69" x="739.208984"/>
      <use xlink:href="#DejaVuSans-6e" x="766.992188"/>
      <use xlink:href="#DejaVuSans-20" x="830.371094"/>
      <use xlink:href="#DejaVuSans-28" x="862.158203"/>
      <use xlink:href="#DejaVuSans-6d" x="901.171875"/>
      <use xlink:href="#DejaVuSans-4d" x="998.583984"/>
      <use xlink:href="#DejaVuSans-29" x="1084.863281"/>
     </g>
    </g>
   </g>
   <g id="line2d_12">
    <path d="M 116.951872 108.435 
L 119.281688 108.928351 
L 119.460905 108.365711 
L 119.819338 105.742315 
L 120.356988 99.218036 
L 121.611505 82.847003 
L 121.969938 81.214263 
L 122.149155 81.057242 
L 122.328371 81.235747 
L 122.686804 82.287218 
L 123.403671 84.983184 
L 123.582888 85.32555 
L 123.762104 85.3658 
L 123.941321 85.008039 
L 124.299754 83.266623 
L 124.837404 78.884519 
L 126.091921 67.809013 
L 126.629571 65.36789 
L 127.167221 64.006907 
L 128.063304 62.080168 
L 128.421737 61.224202 
L 128.600954 61.102214 
L 128.780171 61.155487 
L 129.138604 61.666159 
L 130.572337 64.709511 
L 131.647637 65.722671 
L 132.722937 66.390565 
L 133.798237 66.761509 
L 134.873537 66.88382 
L 136.128053 66.776734 
L 137.561786 66.418915 
L 140.429253 65.393688 
L 142.221419 64.872876 
L 143.475936 64.709615 
L 145.088886 64.772381 
L 147.239485 65.063059 
L 149.927735 65.654317 
L 159.605434 68.008282 
L 163.368984 68.491091 
L 171.792166 69.281379 
L 173.2259 69.123346 
L 174.83885 68.698943 
L 176.810233 67.919334 
L 179.856916 66.41794 
L 183.082815 64.876631 
L 184.695765 64.305934 
L 185.950282 64.120468 
L 187.204798 64.159518 
L 188.638532 64.42812 
L 190.430698 65.012998 
L 193.118948 66.170536 
L 196.344848 67.510582 
L 197.957797 67.940435 
L 198.853881 67.908081 
L 199.749964 67.634948 
L 200.646047 67.141389 
L 201.721347 66.286812 
L 202.975864 64.972595 
L 204.409597 63.120719 
L 206.201763 60.403122 
L 208.710796 56.138469 
L 213.191213 48.484652 
L 214.983379 45.874764 
L 215.879462 44.856632 
L 216.417112 44.640507 
L 216.954762 44.741528 
L 217.492412 45.138267 
L 218.030062 45.809296 
L 218.746929 47.093636 
L 219.643012 49.25383 
L 220.718312 52.52877 
L 222.152045 57.772406 
L 224.302645 66.691842 
L 226.990895 77.744707 
L 228.424628 82.743895 
L 229.679144 86.263277 
L 230.933661 89.098817 
L 232.008961 91.040506 
L 233.084261 92.57073 
L 234.159561 93.727109 
L 235.234861 94.547261 
L 236.31016 95.068807 
L 237.38546 95.329367 
L 238.46076 95.366559 
L 239.715277 95.177829 
L 241.14901 94.72919 
L 243.29961 93.778439 
L 246.704726 92.258123 
L 248.138459 91.857032 
L 249.392976 91.725906 
L 250.468276 91.824362 
L 253.514959 92.403946 
L 254.769475 92.258462 
L 256.023992 91.896188 
L 257.457725 91.247361 
L 259.070675 90.260702 
L 260.862841 88.905169 
L 263.192658 86.846116 
L 267.314641 82.823384 
L 270.540541 79.799421 
L 272.69114 78.065625 
L 274.124874 77.141308 
L 275.020957 76.860103 
L 275.91704 76.843715 
L 276.813123 77.074577 
L 277.709207 77.535121 
L 278.784506 78.366222 
L 279.859806 79.472415 
L 281.114323 81.070164 
L 282.548056 83.242225 
L 284.340223 86.370993 
L 286.670039 90.908482 
L 293.301055 104.131606 
L 295.093222 107.123355 
L 295.989305 108.435 
L 295.989305 108.435 
" clip-path="url(#p558817c841)" style="fill: none; stroke: #ed0000; stroke-width: 1.5; stroke-linecap: square"/>
   </g>
   <g id="line2d_13">
    <path d="M 116.951872 199.039376 
L 119.281688 194.814928 
L 119.460905 194.722947 
L 119.640121 194.834643 
L 119.998555 195.54948 
L 120.536205 197.401877 
L 121.432288 200.576424 
L 121.969938 201.644655 
L 122.686804 202.486094 
L 124.120538 203.743809 
L 124.478971 203.627015 
L 125.016621 203.125385 
L 125.912704 202.259106 
L 126.091921 202.285125 
L 126.450354 202.915299 
L 126.988004 204.889479 
L 128.421737 210.984886 
L 129.138604 212.814096 
L 131.647637 218.039704 
L 132.54372 219.30081 
L 133.439803 220.166382 
L 134.335887 220.688637 
L 135.23197 220.919789 
L 136.128053 220.912055 
L 137.203353 220.660964 
L 138.637086 220.063983 
L 141.683769 218.717729 
L 142.759069 218.515198 
L 143.655152 218.56229 
L 144.909669 218.714525 
L 145.984969 218.593706 
L 147.239485 218.198387 
L 148.673219 217.473839 
L 150.465385 216.270928 
L 153.512068 213.867562 
L 156.021101 211.991931 
L 157.634051 211.044719 
L 158.888568 210.554197 
L 160.322301 210.24671 
L 161.935251 210.159585 
L 163.727417 210.294865 
L 166.7741 210.797888 
L 169.641567 211.190213 
L 175.018066 211.638829 
L 178.423183 212.342256 
L 184.516549 213.64411 
L 186.129498 213.726994 
L 187.921665 213.564444 
L 190.072265 213.111171 
L 193.298164 212.155431 
L 196.882497 211.149208 
L 199.391531 210.498831 
L 201.183697 209.733479 
L 203.15508 208.644132 
L 205.664113 206.978224 
L 209.427663 204.155993 
L 214.087296 200.705137 
L 216.058679 199.46909 
L 217.313196 198.949612 
L 218.567712 198.654291 
L 220.001445 198.540173 
L 221.793612 198.645532 
L 224.481862 199.080779 
L 227.528545 199.534055 
L 229.320711 199.569914 
L 233.263477 199.352655 
L 238.102327 198.844997 
L 246.704726 197.658952 
L 252.081226 197.025277 
L 253.694175 197.079433 
L 255.486342 197.375471 
L 257.457725 197.946414 
L 259.608325 198.807858 
L 262.296575 200.142708 
L 266.418558 202.484903 
L 271.07819 205.075438 
L 273.587224 206.234149 
L 275.020957 206.694725 
L 276.45469 206.912145 
L 277.888423 206.912198 
L 279.501373 206.684574 
L 281.29354 206.192012 
L 283.264923 205.417059 
L 285.773956 204.180439 
L 294.914005 199.421466 
L 295.989305 199.039376 
L 295.989305 199.039376 
" clip-path="url(#p558817c841)" style="fill: none; stroke: #42b540; stroke-width: 1.5; stroke-linecap: square"/>
   </g>
   <g id="line2d_14">
    <path d="M 116.951872 235.43139 
L 119.281688 234.157123 
L 119.640121 234.319751 
L 119.998555 234.854703 
L 120.715421 236.529133 
L 121.432288 238.15552 
L 121.969938 238.836297 
L 122.507588 239.132622 
L 125.554271 239.884352 
L 126.091921 239.994996 
L 126.629571 240.361848 
L 127.704871 241.529931 
L 129.497037 243.30542 
L 131.289204 244.98583 
L 132.364504 245.642933 
L 133.439803 246.041034 
L 134.515103 246.220107 
L 135.76962 246.205529 
L 137.38257 245.930838 
L 140.070819 245.177373 
L 142.221419 244.668292 
L 143.655152 244.547902 
L 145.984969 244.486863 
L 148.494002 244.17182 
L 151.899118 243.497543 
L 157.634051 242.349272 
L 160.143084 242.09805 
L 163.368984 242.016758 
L 174.121983 242.163641 
L 178.064749 242.522431 
L 185.233415 243.220932 
L 187.742448 243.171911 
L 190.968348 242.854499 
L 204.23038 241.05945 
L 210.323746 239.75673 
L 216.058679 238.591297 
L 218.030062 238.423108 
L 220.359879 238.467177 
L 223.585778 238.787446 
L 228.783061 239.325834 
L 231.650528 239.354417 
L 234.876427 239.157289 
L 238.819194 238.67859 
L 245.45021 237.597174 
L 251.005926 236.778102 
L 253.335742 236.613157 
L 255.665559 236.676153 
L 258.353808 236.978824 
L 261.579708 237.581054 
L 266.597774 238.788181 
L 271.974274 240.029361 
L 274.662523 240.45188 
L 276.633907 240.514761 
L 278.784506 240.34585 
L 281.114323 239.934008 
L 283.981789 239.183019 
L 288.103772 237.834158 
L 293.838705 235.971816 
L 295.989305 235.43139 
L 295.989305 235.43139 
" clip-path="url(#p558817c841)" style="fill: none; stroke: #925e9f; stroke-width: 1.5; stroke-linecap: square"/>
   </g>
   <g id="patch_3">
    <path d="M 108 256.32 
L 108 34.56 
" style="fill: none; stroke: #000000; stroke-width: 0.8; stroke-linejoin: miter; stroke-linecap: square"/>
   </g>
   <g id="patch_4">
    <path d="M 304.941176 256.32 
L 304.941176 34.56 
" style="fill: none; stroke: #000000; stroke-width: 0.8; stroke-linejoin: miter; stroke-linecap: square"/>
   </g>
   <g id="patch_5">
    <path d="M 108 256.32 
L 304.941176 256.32 
" style="fill: none; stroke: #000000; stroke-width: 0.8; stroke-linejoin: miter; stroke-linecap: square"/>
   </g>
   <g id="patch_6">
    <path d="M 108 34.56 
L 304.941176 34.56 
" style="fill: none; stroke: #000000; stroke-width: 0.8; stroke-linejoin: miter; stroke-linecap: square"/>
   </g>
  </g>
  <g id="axes_2">
   <g id="patch_7">
    <path d="M 344.329412 256.32 
L 541.270588 256.32 
L 541.270588 34.56 
L 344.329412 34.56 
z
" style="fill: #ffffff"/>
   </g>
   <g id="matplotlib.axis_3">
    <g id="xtick_6">
     <g id="line2d_15">
      <g>
       <use xlink:href="#mcea227b817" x="353.281283" y="256.32" style="stroke: #000000; stroke-width: 0.8"/>
      </g>
     </g>
     <g id="text_14">
      <!-- 0 -->
      <g transform="translate(350.100033 270.918437) scale(0.1 -0.1)">
       <use xlink:href="#DejaVuSans-30"/>
      </g>
     </g>
    </g>
    <g id="xtick_7">
     <g id="line2d_16">
      <g>
       <use xlink:href="#mcea227b817" x="402.931154" y="256.32" style="stroke: #000000; stroke-width: 0.8"/>
      </g>
     </g>
     <g id="text_15">
      <!-- 500 -->
      <g transform="translate(393.387404 270.918437) scale(0.1 -0.1)">
       <use xlink:href="#DejaVuSans-35"/>
       <use xlink:href="#DejaVuSans-30" x="63.623047"/>
       <use xlink:href="#DejaVuSans-30" x="127.246094"/>
      </g>
     </g>
    </g>
    <g id="xtick_8">
     <g id="line2d_17">
      <g>
       <use xlink:href="#mcea227b817" x="452.581024" y="256.32" style="stroke: #000000; stroke-width: 0.8"/>
      </g>
     </g>
     <g id="text_16">
      <!-- 1000 -->
      <g transform="translate(439.856024 270.918437) scale(0.1 -0.1)">
       <use xlink:href="#DejaVuSans-31"/>
       <use xlink:href="#DejaVuSans-30" x="63.623047"/>
       <use xlink:href="#DejaVuSans-30" x="127.246094"/>
       <use xlink:href="#DejaVuSans-30" x="190.869141"/>
      </g>
     </g>
    </g>
    <g id="xtick_9">
     <g id="line2d_18">
      <g>
       <use xlink:href="#mcea227b817" x="502.230895" y="256.32" style="stroke: #000000; stroke-width: 0.8"/>
      </g>
     </g>
     <g id="text_17">
      <!-- 1500 -->
      <g transform="translate(489.505895 270.918437) scale(0.1 -0.1)">
       <use xlink:href="#DejaVuSans-31"/>
       <use xlink:href="#DejaVuSans-35" x="63.623047"/>
       <use xlink:href="#DejaVuSans-30" x="127.246094"/>
       <use xlink:href="#DejaVuSans-30" x="190.869141"/>
      </g>
     </g>
    </g>
    <g id="text_18">
     <!-- Time in (s) -->
     <g transform="translate(416.324219 284.596563) scale(0.1 -0.1)">
      <use xlink:href="#DejaVuSans-54"/>
      <use xlink:href="#DejaVuSans-69" x="57.958984"/>
      <use xlink:href="#DejaVuSans-6d" x="85.742188"/>
      <use xlink:href="#DejaVuSans-65" x="183.154297"/>
      <use xlink:href="#DejaVuSans-20" x="244.677734"/>
      <use xlink:href="#DejaVuSans-69" x="276.464844"/>
      <use xlink:href="#DejaVuSans-6e" x="304.248047"/>
      <use xlink:href="#DejaVuSans-20" x="367.626953"/>
      <use xlink:href="#DejaVuSans-28" x="399.414062"/>
      <use xlink:href="#DejaVuSans-73" x="438.427734"/>
      <use xlink:href="#DejaVuSans-29" x="490.527344"/>
     </g>
    </g>
   </g>
   <g id="matplotlib.axis_4">
    <g id="ytick_7">
     <g id="line2d_19">
      <g>
       <use xlink:href="#m4f6a2855bf" x="344.329412" y="253.878957" style="stroke: #000000; stroke-width: 0.8"/>
      </g>
     </g>
     <g id="text_19">
      <!-- 0.0 -->
      <g transform="translate(321.426287 257.678176) scale(0.1 -0.1)">
       <defs>
        <path id="DejaVuSans-2e" d="M 684 794 
L 1344 794 
L 1344 0 
L 684 0 
L 684 794 
z
" transform="scale(0.015625)"/>
       </defs>
       <use xlink:href="#DejaVuSans-30"/>
       <use xlink:href="#DejaVuSans-2e" x="63.623047"/>
       <use xlink:href="#DejaVuSans-30" x="95.410156"/>
      </g>
     </g>
    </g>
    <g id="ytick_8">
     <g id="line2d_20">
      <g>
       <use xlink:href="#m4f6a2855bf" x="344.329412" y="225.193052" style="stroke: #000000; stroke-width: 0.8"/>
      </g>
     </g>
     <g id="text_20">
      <!-- 0.5 -->
      <g transform="translate(321.426287 228.992271) scale(0.1 -0.1)">
       <use xlink:href="#DejaVuSans-30"/>
       <use xlink:href="#DejaVuSans-2e" x="63.623047"/>
       <use xlink:href="#DejaVuSans-35" x="95.410156"/>
      </g>
     </g>
    </g>
    <g id="ytick_9">
     <g id="line2d_21">
      <g>
       <use xlink:href="#m4f6a2855bf" x="344.329412" y="196.507147" style="stroke: #000000; stroke-width: 0.8"/>
      </g>
     </g>
     <g id="text_21">
      <!-- 1.0 -->
      <g transform="translate(321.426287 200.306366) scale(0.1 -0.1)">
       <use xlink:href="#DejaVuSans-31"/>
       <use xlink:href="#DejaVuSans-2e" x="63.623047"/>
       <use xlink:href="#DejaVuSans-30" x="95.410156"/>
      </g>
     </g>
    </g>
    <g id="ytick_10">
     <g id="line2d_22">
      <g>
       <use xlink:href="#m4f6a2855bf" x="344.329412" y="167.821243" style="stroke: #000000; stroke-width: 0.8"/>
      </g>
     </g>
     <g id="text_22">
      <!-- 1.5 -->
      <g transform="translate(321.426287 171.620461) scale(0.1 -0.1)">
       <use xlink:href="#DejaVuSans-31"/>
       <use xlink:href="#DejaVuSans-2e" x="63.623047"/>
       <use xlink:href="#DejaVuSans-35" x="95.410156"/>
      </g>
     </g>
    </g>
    <g id="ytick_11">
     <g id="line2d_23">
      <g>
       <use xlink:href="#m4f6a2855bf" x="344.329412" y="139.135338" style="stroke: #000000; stroke-width: 0.8"/>
      </g>
     </g>
     <g id="text_23">
      <!-- 2.0 -->
      <g transform="translate(321.426287 142.934557) scale(0.1 -0.1)">
       <use xlink:href="#DejaVuSans-32"/>
       <use xlink:href="#DejaVuSans-2e" x="63.623047"/>
       <use xlink:href="#DejaVuSans-30" x="95.410156"/>
      </g>
     </g>
    </g>
    <g id="ytick_12">
     <g id="line2d_24">
      <g>
       <use xlink:href="#m4f6a2855bf" x="344.329412" y="110.449433" style="stroke: #000000; stroke-width: 0.8"/>
      </g>
     </g>
     <g id="text_24">
      <!-- 2.5 -->
      <g transform="translate(321.426287 114.248652) scale(0.1 -0.1)">
       <use xlink:href="#DejaVuSans-32"/>
       <use xlink:href="#DejaVuSans-2e" x="63.623047"/>
       <use xlink:href="#DejaVuSans-35" x="95.410156"/>
      </g>
     </g>
    </g>
    <g id="ytick_13">
     <g id="line2d_25">
      <g>
       <use xlink:href="#m4f6a2855bf" x="344.329412" y="81.763529" style="stroke: #000000; stroke-width: 0.8"/>
      </g>
     </g>
     <g id="text_25">
      <!-- 3.0 -->
      <g transform="translate(321.426287 85.562747) scale(0.1 -0.1)">
       <use xlink:href="#DejaVuSans-33"/>
       <use xlink:href="#DejaVuSans-2e" x="63.623047"/>
       <use xlink:href="#DejaVuSans-30" x="95.410156"/>
      </g>
     </g>
    </g>
    <g id="ytick_14">
     <g id="line2d_26">
      <g>
       <use xlink:href="#m4f6a2855bf" x="344.329412" y="53.077624" style="stroke: #000000; stroke-width: 0.8"/>
      </g>
     </g>
     <g id="text_26">
      <!-- 3.5 -->
      <g transform="translate(321.426287 56.876843) scale(0.1 -0.1)">
       <use xlink:href="#DejaVuSans-33"/>
       <use xlink:href="#DejaVuSans-2e" x="63.623047"/>
       <use xlink:href="#DejaVuSans-35" x="95.410156"/>
      </g>
     </g>
    </g>
   </g>
   <g id="line2d_27">
    <path d="M 353.281283 157.734081 
L 353.818933 159.677486 
L 353.99815 152.954726 
L 354.5358 126.03525 
L 355.431883 99.093864 
L 355.969533 66.134675 
L 356.327966 44.64 
L 356.507183 46.717908 
L 356.865616 77.42671 
L 357.22405 113.780343 
L 357.582483 129.765736 
L 357.7617 130.930843 
L 357.940916 128.583382 
L 358.29935 116.438221 
L 359.195433 78.635995 
L 359.553866 73.288228 
L 359.733083 72.098164 
L 359.912299 71.746465 
L 360.091516 72.13244 
L 360.449949 74.714649 
L 360.987599 81.603246 
L 362.062899 96.267055 
L 362.421333 98.699077 
L 362.779766 100.169467 
L 363.138199 100.956986 
L 363.496632 101.233458 
L 363.855066 101.170711 
L 364.930366 100.665405 
L 365.288799 100.968158 
L 365.647232 101.807347 
L 366.184882 103.9396 
L 367.080965 108.880055 
L 368.156265 114.919353 
L 368.514699 116.062097 
L 368.693915 116.185528 
L 368.873132 116.033396 
L 369.231565 114.973191 
L 369.589999 113.022969 
L 370.127649 108.738365 
L 371.023732 99.151708 
L 372.815898 78.765965 
L 373.353548 74.463188 
L 373.711982 72.706691 
L 374.070415 71.810183 
L 374.249631 71.649259 
L 374.428848 71.661133 
L 374.787281 72.147011 
L 375.145715 73.155286 
L 375.683365 75.401032 
L 378.013181 86.524095 
L 378.371614 87.187583 
L 378.730048 87.393892 
L 379.088481 87.197097 
L 379.446914 86.650987 
L 379.984564 85.294519 
L 380.701431 82.765321 
L 383.031247 73.811122 
L 383.568897 72.759319 
L 383.927331 72.50675 
L 384.285764 72.589241 
L 384.644197 72.985955 
L 385.181847 74.124616 
L 385.719497 75.853077 
L 386.436364 78.953613 
L 387.332447 83.874037 
L 388.586963 92.129426 
L 392.350513 118.040147 
L 393.246596 122.572028 
L 393.963463 124.978673 
L 394.501113 126.020165 
L 394.859546 126.372579 
L 395.217979 126.464935 
L 395.576413 126.308781 
L 395.934846 125.915666 
L 396.472496 124.906951 
L 397.010146 123.430032 
L 397.727013 120.799854 
L 398.623096 116.579806 
L 399.698396 110.386519 
L 401.132129 100.724512 
L 404.178812 78.033743 
L 405.970978 65.588205 
L 407.225495 58.247291 
L 408.121578 54.029475 
L 408.838445 51.61614 
L 409.376095 50.40305 
L 409.913745 49.667817 
L 410.272178 49.428122 
L 410.630611 49.378286 
L 410.989045 49.5093 
L 411.526695 50.025207 
L 412.064345 50.897352 
L 412.781211 52.561809 
L 413.677294 55.347168 
L 414.752594 59.537483 
L 416.186328 66.164016 
L 421.38361 91.483968 
L 422.45891 95.281991 
L 423.175777 97.191567 
L 423.713427 98.089156 
L 424.251077 98.544468 
L 424.60951 98.622911 
L 424.967943 98.5357 
L 425.505593 98.121336 
L 426.043243 97.403812 
L 426.76011 96.047664 
L 427.656193 93.849621 
L 429.089926 89.626071 
L 431.419743 82.736354 
L 432.315826 80.680578 
L 432.853476 79.76194 
L 433.211909 79.603627 
L 433.570343 79.915979 
L 433.928776 80.67147 
L 434.466426 82.575384 
L 435.004076 85.321537 
L 435.720942 90.132664 
L 436.617026 97.684478 
L 437.871542 110.357088 
L 442.531175 160.181493 
L 443.068825 164.091419 
L 443.606475 166.437442 
L 443.964908 167.18498 
L 444.144125 167.329142 
L 444.323342 167.327051 
L 444.681775 166.904555 
L 445.040208 165.958393 
L 445.577858 163.646743 
L 446.294725 159.113441 
L 447.190808 151.574808 
L 448.445324 138.671502 
L 451.492008 106.006205 
L 452.388091 98.758667 
L 453.284174 93.40897 
L 454.180257 89.496609 
L 454.897124 87.31996 
L 455.434774 86.20946 
L 455.972424 85.522043 
L 456.510074 85.235808 
L 456.868507 85.257049 
L 457.406157 85.590781 
L 457.943807 86.267292 
L 458.660674 87.664665 
L 459.37754 89.580572 
L 460.273623 92.625558 
L 461.348923 97.099184 
L 462.782656 104.167238 
L 464.75404 115.238114 
L 469.234456 140.868884 
L 470.668189 147.638108 
L 471.743489 151.8163 
L 472.639572 154.573259 
L 473.535655 156.731252 
L 474.431739 158.374139 
L 475.327822 159.539925 
L 476.044689 160.154579 
L 476.761555 160.507669 
L 477.478422 160.618655 
L 478.195288 160.506993 
L 478.912155 160.192143 
L 479.808238 159.542491 
L 480.883538 158.437476 
L 482.138055 156.782592 
L 483.751004 154.236726 
L 487.335337 147.953051 
L 489.127504 145.080193 
L 490.561237 143.1883 
L 491.636537 142.1086 
L 492.53262 141.479028 
L 493.787137 140.874761 
L 495.041653 140.512022 
L 496.29617 140.36503 
L 497.729903 140.428152 
L 499.342853 140.747835 
L 501.13502 141.347588 
L 503.464836 142.392257 
L 510.633502 145.812484 
L 512.425668 146.313503 
L 513.321752 146.330819 
L 514.217835 146.135966 
L 515.293135 145.671115 
L 516.547651 144.886312 
L 518.519035 143.346125 
L 521.386501 141.118236 
L 522.461801 140.536277 
L 522.999451 140.519214 
L 523.537101 140.720513 
L 524.253967 141.294247 
L 524.970834 142.173775 
L 525.866917 143.631473 
L 527.121434 146.176246 
L 529.092817 150.804743 
L 531.243417 155.716272 
L 532.318717 157.734081 
L 532.318717 157.734081 
" clip-path="url(#pf9b9e3d000)" style="fill: none; stroke: #ed0000; stroke-width: 1.5; stroke-linecap: square"/>
   </g>
   <g id="line2d_28">
    <path d="M 353.281283 174.239003 
L 353.818933 183.460898 
L 354.715017 211.011825 
L 355.431883 214.45415 
L 355.6111 212.298233 
L 356.327966 195.907316 
L 356.507183 196.600927 
L 356.865616 206.016493 
L 357.403266 220.452286 
L 357.7617 223.172286 
L 357.940916 223.006799 
L 358.29935 220.665981 
L 359.195433 212.807033 
L 359.553866 212.023026 
L 359.912299 211.632709 
L 360.270733 211.536616 
L 360.629166 211.654424 
L 361.346033 212.210457 
L 362.062899 212.658237 
L 362.421333 212.618905 
L 362.779766 212.249758 
L 363.317416 211.197597 
L 364.213499 208.696638 
L 365.288799 205.826723 
L 365.468016 205.626354 
L 365.647232 205.606734 
L 365.826449 205.748977 
L 366.184882 206.443509 
L 366.722532 208.227141 
L 368.156265 213.734724 
L 368.693915 214.738553 
L 369.052349 214.970397 
L 369.410782 214.903649 
L 369.769215 214.582282 
L 370.306865 213.719012 
L 371.202948 211.630086 
L 372.636682 208.121827 
L 373.174332 207.237305 
L 373.711982 206.787903 
L 374.070415 206.71496 
L 374.608065 206.88748 
L 375.145715 207.328661 
L 376.041798 208.448136 
L 377.833964 210.821587 
L 378.550831 211.321359 
L 379.088481 211.460266 
L 379.805348 211.400802 
L 380.701431 211.057536 
L 383.031247 209.951487 
L 383.927331 209.842474 
L 385.00263 209.953155 
L 386.257147 210.352348 
L 387.69088 211.06818 
L 390.020697 212.529246 
L 392.350513 213.918905 
L 393.60503 214.425443 
L 394.501113 214.509328 
L 395.397196 214.361303 
L 396.293279 214.006018 
L 397.368579 213.340803 
L 398.623096 212.2892 
L 400.236046 210.605282 
L 402.565862 207.786462 
L 405.970978 203.664354 
L 407.583928 202.050421 
L 409.376095 200.633479 
L 411.347478 199.345628 
L 413.677294 198.096395 
L 416.723977 196.736929 
L 422.45891 194.222353 
L 423.53421 193.769299 
L 424.430293 193.677687 
L 425.326377 193.81939 
L 426.401677 194.23831 
L 427.656193 194.978522 
L 429.98601 196.693356 
L 431.957393 198.031724 
L 434.107992 199.325407 
L 435.183292 200.380649 
L 436.617026 202.150487 
L 438.588409 205.010701 
L 442.351958 210.554813 
L 443.248042 211.550568 
L 443.964908 211.937194 
L 444.502558 212.003881 
L 445.219425 211.831547 
L 445.936291 211.402307 
L 446.832375 210.573733 
L 448.086891 209.02771 
L 452.029657 203.804616 
L 453.104957 202.936358 
L 454.717907 201.924946 
L 456.330857 201.156685 
L 458.123024 200.545275 
L 460.094407 200.111241 
L 462.424223 199.834781 
L 466.008556 199.675206 
L 470.130539 199.442659 
L 472.460356 199.076377 
L 475.865472 198.238318 
L 480.166671 196.933718 
L 487.156121 194.529532 
L 493.07027 192.581146 
L 494.862437 192.23131 
L 496.83382 192.078568 
L 498.98442 192.13775 
L 501.672669 192.456093 
L 505.615436 193.188702 
L 510.275069 194.017494 
L 512.425668 194.219443 
L 513.142535 194.101643 
L 514.038618 193.711632 
L 515.113918 192.944762 
L 516.368435 191.732645 
L 518.160601 189.633921 
L 521.386501 185.786842 
L 529.809683 176.968227 
L 532.318717 174.239003 
L 532.318717 174.239003 
" clip-path="url(#pf9b9e3d000)" style="fill: none; stroke: #42b540; stroke-width: 1.5; stroke-linecap: square"/>
   </g>
   <g id="line2d_29">
    <path d="M 353.281283 218.985526 
L 353.818933 225.651003 
L 354.5358 242.459255 
L 354.715017 243.350021 
L 354.894233 243.350142 
L 355.07345 243.181017 
L 355.431883 244.149368 
L 355.6111 243.93444 
L 356.327966 240.835203 
L 356.507183 241.008313 
L 356.865616 242.743448 
L 357.403266 245.412803 
L 357.7617 246.108202 
L 358.120133 246.24 
L 358.657783 245.92278 
L 359.016216 245.729245 
L 360.091516 245.679455 
L 360.808383 245.160033 
L 362.421333 243.825653 
L 363.675849 243.254091 
L 365.647232 242.608325 
L 366.184882 242.805391 
L 366.901749 243.357436 
L 368.156265 244.410205 
L 368.693915 244.621476 
L 369.231565 244.632021 
L 369.948432 244.400604 
L 370.844515 243.845666 
L 373.174332 242.249929 
L 373.711982 242.137059 
L 374.249631 242.21316 
L 374.966498 242.544475 
L 376.041798 243.355393 
L 378.013181 244.921436 
L 378.730048 245.188976 
L 379.446914 245.171009 
L 380.342998 244.861809 
L 381.955947 243.954482 
L 383.031247 243.45787 
L 384.106547 243.226847 
L 385.361064 243.19827 
L 386.794797 243.411064 
L 388.586963 243.916474 
L 392.888163 245.234158 
L 394.321896 245.408717 
L 395.934846 245.383286 
L 397.727013 245.131488 
L 399.877612 244.601652 
L 403.282729 243.499467 
L 406.867062 242.393687 
L 409.913745 241.731516 
L 424.07186 238.868707 
L 425.326377 238.981582 
L 426.76011 239.328491 
L 428.91071 240.110024 
L 432.315826 241.369296 
L 433.570343 241.629591 
L 434.824859 241.657177 
L 436.258592 241.461714 
L 438.229975 240.935399 
L 442.710392 239.634381 
L 443.964908 239.522902 
L 445.398641 239.623499 
L 447.190808 239.993893 
L 450.775141 241.056893 
L 452.925741 241.551472 
L 454.538691 241.698957 
L 456.330857 241.638966 
L 458.30224 241.34427 
L 460.632057 240.753623 
L 463.499523 239.78263 
L 471.743489 236.83254 
L 474.073305 236.305662 
L 476.761555 235.93201 
L 479.808238 235.740686 
L 483.930221 235.727849 
L 492.174187 235.760162 
L 497.37147 235.418568 
L 504.898569 234.669064 
L 514.038618 233.582922 
L 516.010001 232.958942 
L 519.056684 231.713462 
L 523.537101 229.717243 
L 524.612401 228.791861 
L 526.046134 227.2202 
L 528.017517 224.654137 
L 531.960283 219.398945 
L 532.318717 218.985526 
L 532.318717 218.985526 
" clip-path="url(#pf9b9e3d000)" style="fill: none; stroke: #925e9f; stroke-width: 1.5; stroke-linecap: square"/>
   </g>
   <g id="patch_8">
    <path d="M 344.329412 256.32 
L 344.329412 34.56 
" style="fill: none; stroke: #000000; stroke-width: 0.8; stroke-linejoin: miter; stroke-linecap: square"/>
   </g>
   <g id="patch_9">
    <path d="M 541.270588 256.32 
L 541.270588 34.56 
" style="fill: none; stroke: #000000; stroke-width: 0.8; stroke-linejoin: miter; stroke-linecap: square"/>
   </g>
   <g id="patch_10">
    <path d="M 344.329412 256.32 
L 541.270588 256.32 
" style="fill: none; stroke: #000000; stroke-width: 0.8; stroke-linejoin: miter; stroke-linecap: square"/>
   </g>
   <g id="patch_11">
    <path d="M 344.329412 34.56 
L 541.270588 34.56 
" style="fill: none; stroke: #000000; stroke-width: 0.8; stroke-linejoin: miter; stroke-linecap: square"/>
   </g>
  </g>
  <g id="axes_3">
   <g id="patch_12">
    <path d="M 580.658824 256.32 
L 777.6 256.32 
L 777.6 34.56 
L 580.658824 34.56 
z
" style="fill: #ffffff"/>
   </g>
   <g id="matplotlib.axis_5">
    <g id="xtick_10">
     <g id="line2d_30">
      <g>
       <use xlink:href="#mcea227b817" x="589.610695" y="256.32" style="stroke: #000000; stroke-width: 0.8"/>
      </g>
     </g>
     <g id="text_27">
      <!-- 0 -->
      <g transform="translate(586.429445 270.918437) scale(0.1 -0.1)">
       <use xlink:href="#DejaVuSans-30"/>
      </g>
     </g>
    </g>
    <g id="xtick_11">
     <g id="line2d_31">
      <g>
       <use xlink:href="#mcea227b817" x="634.594975" y="256.32" style="stroke: #000000; stroke-width: 0.8"/>
      </g>
     </g>
     <g id="text_28">
      <!-- 100 -->
      <g transform="translate(625.051225 270.918437) scale(0.1 -0.1)">
       <use xlink:href="#DejaVuSans-31"/>
       <use xlink:href="#DejaVuSans-30" x="63.623047"/>
       <use xlink:href="#DejaVuSans-30" x="127.246094"/>
      </g>
     </g>
    </g>
    <g id="xtick_12">
     <g id="line2d_32">
      <g>
       <use xlink:href="#mcea227b817" x="679.579255" y="256.32" style="stroke: #000000; stroke-width: 0.8"/>
      </g>
     </g>
     <g id="text_29">
      <!-- 200 -->
      <g transform="translate(670.035505 270.918437) scale(0.1 -0.1)">
       <use xlink:href="#DejaVuSans-32"/>
       <use xlink:href="#DejaVuSans-30" x="63.623047"/>
       <use xlink:href="#DejaVuSans-30" x="127.246094"/>
      </g>
     </g>
    </g>
    <g id="xtick_13">
     <g id="line2d_33">
      <g>
       <use xlink:href="#mcea227b817" x="724.563534" y="256.32" style="stroke: #000000; stroke-width: 0.8"/>
      </g>
     </g>
     <g id="text_30">
      <!-- 300 -->
      <g transform="translate(715.019784 270.918437) scale(0.1 -0.1)">
       <use xlink:href="#DejaVuSans-33"/>
       <use xlink:href="#DejaVuSans-30" x="63.623047"/>
       <use xlink:href="#DejaVuSans-30" x="127.246094"/>
      </g>
     </g>
    </g>
    <g id="xtick_14">
     <g id="line2d_34">
      <g>
       <use xlink:href="#mcea227b817" x="769.547814" y="256.32" style="stroke: #000000; stroke-width: 0.8"/>
      </g>
     </g>
     <g id="text_31">
      <!-- 400 -->
      <g transform="translate(760.004064 270.918437) scale(0.1 -0.1)">
       <use xlink:href="#DejaVuSans-34"/>
       <use xlink:href="#DejaVuSans-30" x="63.623047"/>
       <use xlink:href="#DejaVuSans-30" x="127.246094"/>
      </g>
     </g>
    </g>
    <g id="text_32">
     <!-- Time in (s) -->
     <g transform="translate(652.653631 284.596563) scale(0.1 -0.1)">
      <use xlink:href="#DejaVuSans-54"/>
      <use xlink:href="#DejaVuSans-69" x="57.958984"/>
      <use xlink:href="#DejaVuSans-6d" x="85.742188"/>
      <use xlink:href="#DejaVuSans-65" x="183.154297"/>
      <use xlink:href="#DejaVuSans-20" x="244.677734"/>
      <use xlink:href="#DejaVuSans-69" x="276.464844"/>
      <use xlink:href="#DejaVuSans-6e" x="304.248047"/>
      <use xlink:href="#DejaVuSans-20" x="367.626953"/>
      <use xlink:href="#DejaVuSans-28" x="399.414062"/>
      <use xlink:href="#DejaVuSans-73" x="438.427734"/>
      <use xlink:href="#DejaVuSans-29" x="490.527344"/>
     </g>
    </g>
   </g>
   <g id="matplotlib.axis_6">
    <g id="ytick_15">
     <g id="line2d_35">
      <g>
       <use xlink:href="#m4f6a2855bf" x="580.658824" y="255.568616" style="stroke: #000000; stroke-width: 0.8"/>
      </g>
     </g>
     <g id="text_33">
      <!-- 0 -->
      <g transform="translate(567.296324 259.367834) scale(0.1 -0.1)">
       <use xlink:href="#DejaVuSans-30"/>
      </g>
     </g>
    </g>
    <g id="ytick_16">
     <g id="line2d_36">
      <g>
       <use xlink:href="#m4f6a2855bf" x="580.658824" y="223.073361" style="stroke: #000000; stroke-width: 0.8"/>
      </g>
     </g>
     <g id="text_34">
      <!-- 1 -->
      <g transform="translate(567.296324 226.872579) scale(0.1 -0.1)">
       <use xlink:href="#DejaVuSans-31"/>
      </g>
     </g>
    </g>
    <g id="ytick_17">
     <g id="line2d_37">
      <g>
       <use xlink:href="#m4f6a2855bf" x="580.658824" y="190.578106" style="stroke: #000000; stroke-width: 0.8"/>
      </g>
     </g>
     <g id="text_35">
      <!-- 2 -->
      <g transform="translate(567.296324 194.377325) scale(0.1 -0.1)">
       <use xlink:href="#DejaVuSans-32"/>
      </g>
     </g>
    </g>
    <g id="ytick_18">
     <g id="line2d_38">
      <g>
       <use xlink:href="#m4f6a2855bf" x="580.658824" y="158.082851" style="stroke: #000000; stroke-width: 0.8"/>
      </g>
     </g>
     <g id="text_36">
      <!-- 3 -->
      <g transform="translate(567.296324 161.88207) scale(0.1 -0.1)">
       <use xlink:href="#DejaVuSans-33"/>
      </g>
     </g>
    </g>
    <g id="ytick_19">
     <g id="line2d_39">
      <g>
       <use xlink:href="#m4f6a2855bf" x="580.658824" y="125.587596" style="stroke: #000000; stroke-width: 0.8"/>
      </g>
     </g>
     <g id="text_37">
      <!-- 4 -->
      <g transform="translate(567.296324 129.386815) scale(0.1 -0.1)">
       <use xlink:href="#DejaVuSans-34"/>
      </g>
     </g>
    </g>
    <g id="ytick_20">
     <g id="line2d_40">
      <g>
       <use xlink:href="#m4f6a2855bf" x="580.658824" y="93.092342" style="stroke: #000000; stroke-width: 0.8"/>
      </g>
     </g>
     <g id="text_38">
      <!-- 5 -->
      <g transform="translate(567.296324 96.89156) scale(0.1 -0.1)">
       <use xlink:href="#DejaVuSans-35"/>
      </g>
     </g>
    </g>
    <g id="ytick_21">
     <g id="line2d_41">
      <g>
       <use xlink:href="#m4f6a2855bf" x="580.658824" y="60.597087" style="stroke: #000000; stroke-width: 0.8"/>
      </g>
     </g>
     <g id="text_39">
      <!-- 6 -->
      <g transform="translate(567.296324 64.396306) scale(0.1 -0.1)">
       <defs>
        <path id="DejaVuSans-36" d="M 2113 2584 
Q 1688 2584 1439 2293 
Q 1191 2003 1191 1497 
Q 1191 994 1439 701 
Q 1688 409 2113 409 
Q 2538 409 2786 701 
Q 3034 994 3034 1497 
Q 3034 2003 2786 2293 
Q 2538 2584 2113 2584 
z
M 3366 4563 
L 3366 3988 
Q 3128 4100 2886 4159 
Q 2644 4219 2406 4219 
Q 1781 4219 1451 3797 
Q 1122 3375 1075 2522 
Q 1259 2794 1537 2939 
Q 1816 3084 2150 3084 
Q 2853 3084 3261 2657 
Q 3669 2231 3669 1497 
Q 3669 778 3244 343 
Q 2819 -91 2113 -91 
Q 1303 -91 875 529 
Q 447 1150 447 2328 
Q 447 3434 972 4092 
Q 1497 4750 2381 4750 
Q 2619 4750 2861 4703 
Q 3103 4656 3366 4563 
z
" transform="scale(0.015625)"/>
       </defs>
       <use xlink:href="#DejaVuSans-36"/>
      </g>
     </g>
    </g>
   </g>
   <g id="line2d_42">
    <path d="M 589.610695 172.269447 
L 592.119728 130.251377 
L 592.298945 129.503178 
L 592.478162 129.722516 
L 592.836595 132.409741 
L 593.553461 142.199944 
L 594.091111 148.255627 
L 594.270328 148.921967 
L 594.449545 148.375489 
L 594.807978 144.285162 
L 595.345628 133.099484 
L 596.420928 108.675903 
L 596.779361 104.370458 
L 597.137794 102.254045 
L 597.496228 101.599119 
L 597.854661 101.678135 
L 598.213094 101.763549 
L 598.392311 101.581298 
L 598.750744 100.415706 
L 599.467611 96.815489 
L 600.363694 91.042558 
L 602.335077 76.224909 
L 603.589594 67.756252 
L 604.30646 64.361326 
L 605.023327 62.075749 
L 605.560977 61.028215 
L 606.098627 60.504281 
L 606.45706 60.424628 
L 606.815494 60.545811 
L 607.353144 61.076259 
L 607.890793 61.986863 
L 608.60766 63.717981 
L 609.503743 66.569295 
L 610.75826 71.4873 
L 615.059459 89.437491 
L 615.955543 92.002642 
L 616.672409 93.447902 
L 617.210059 94.145933 
L 617.747709 94.538217 
L 618.285359 94.644351 
L 618.823009 94.483933 
L 619.360659 94.076561 
L 620.077526 93.183118 
L 620.794392 91.931939 
L 621.690476 89.935665 
L 622.944992 86.496511 
L 624.557942 81.335924 
L 628.500708 68.357148 
L 629.755225 65.052367 
L 631.009741 62.425494 
L 632.443474 59.892368 
L 634.056424 57.513679 
L 635.848591 55.312511 
L 637.999191 53.056591 
L 642.479607 48.494016 
L 644.98864 45.734028 
L 645.884723 45.157298 
L 646.780806 44.807167 
L 647.856106 44.643474 
L 648.931406 44.710129 
L 650.185923 45.009205 
L 651.978089 45.691992 
L 655.203989 46.966216 
L 656.458506 47.23009 
L 657.892239 47.480593 
L 658.609105 47.988422 
L 659.325972 48.77144 
L 660.222055 50.096991 
L 661.297355 52.128219 
L 662.551872 54.992859 
L 664.164822 59.241331 
L 670.437404 76.411513 
L 671.691921 78.937349 
L 672.946437 80.946191 
L 674.200954 82.497198 
L 675.276254 83.507436 
L 676.53077 84.366385 
L 677.785287 84.937877 
L 679.21902 85.315517 
L 680.83197 85.495507 
L 686.566903 85.898587 
L 687.821419 86.317167 
L 688.896719 86.878427 
L 689.792802 87.578824 
L 690.868102 88.703105 
L 692.122619 90.351571 
L 693.735569 92.898585 
L 695.706952 96.467173 
L 701.979535 108.209407 
L 703.950918 111.194923 
L 706.101518 114.038874 
L 708.252117 116.5211 
L 710.581934 118.884269 
L 713.4494 121.457671 
L 717.929816 125.117084 
L 722.051799 128.577856 
L 724.740049 131.126922 
L 726.711432 132.904413 
L 728.682815 134.372349 
L 730.833415 135.676504 
L 733.163232 136.808934 
L 735.851481 137.853143 
L 739.973464 139.173272 
L 744.274664 140.604137 
L 746.962914 141.741831 
L 748.21743 142.459114 
L 749.471947 143.425114 
L 750.90568 144.80402 
L 752.51863 146.663631 
L 754.490013 149.309126 
L 756.819829 152.845869 
L 760.045729 158.207517 
L 766.497529 169.053973 
L 768.648128 172.269447 
L 768.648128 172.269447 
" clip-path="url(#p0b4693a915)" style="fill: none; stroke: #ed0000; stroke-width: 1.5; stroke-linecap: square"/>
   </g>
   <g id="line2d_43">
    <path d="M 589.610695 169.859808 
L 591.940512 168.413312 
L 592.119728 168.641743 
L 592.478162 170.006548 
L 593.015812 173.634079 
L 594.270328 182.991326 
L 594.628761 184.070931 
L 594.807978 184.265282 
L 594.987195 184.28227 
L 595.345628 183.942963 
L 596.062495 182.882885 
L 596.241711 182.769992 
L 596.420928 182.795304 
L 596.779361 183.235289 
L 597.317011 184.603696 
L 599.467611 191.9112 
L 600.363694 196.243551 
L 602.155861 206.497463 
L 603.410377 213.164428 
L 604.30646 216.75035 
L 605.023327 218.866202 
L 605.740194 220.378979 
L 606.45706 221.349747 
L 606.99471 221.758867 
L 607.53236 221.923219 
L 608.07001 221.868567 
L 608.60766 221.620674 
L 609.324527 221.034079 
L 610.22061 219.975171 
L 611.475126 218.098526 
L 614.163376 213.945548 
L 615.059459 212.950723 
L 615.776326 212.432484 
L 616.313976 212.245825 
L 617.210059 212.260478 
L 619.539876 212.53629 
L 622.407342 213.11865 
L 632.264258 215.356885 
L 634.594074 215.461872 
L 637.640757 215.364002 
L 646.960023 214.715804 
L 649.28984 214.121157 
L 653.053389 212.884093 
L 656.996156 211.656223 
L 658.967539 211.033153 
L 661.118138 210.103353 
L 663.985605 208.591165 
L 673.484087 203.108985 
L 675.634687 201.40948 
L 678.14372 199.133408 
L 681.728053 195.554577 
L 687.642203 189.634318 
L 689.792802 187.782121 
L 691.405752 186.713982 
L 693.197919 185.798417 
L 695.348519 184.962359 
L 702.696401 182.366918 
L 707.714467 179.930935 
L 714.5247 176.354618 
L 725.636132 170.491167 
L 727.249082 169.955051 
L 728.862032 169.645695 
L 730.654199 169.531777 
L 732.625582 169.638792 
L 734.955398 170.006993 
L 738.002081 170.741572 
L 744.633097 172.42248 
L 746.962914 172.74394 
L 749.471947 172.832503 
L 752.160197 172.699815 
L 755.386096 172.303098 
L 759.687296 171.521745 
L 768.110478 169.934581 
L 768.648128 169.859808 
L 768.648128 169.859808 
" clip-path="url(#p0b4693a915)" style="fill: none; stroke: #42b540; stroke-width: 1.5; stroke-linecap: square"/>
   </g>
   <g id="line2d_44">
    <path d="M 589.610695 218.746256 
L 592.119728 220.080272 
L 592.657378 221.029488 
L 593.732678 223.827355 
L 597.317011 233.064971 
L 599.109178 238.507072 
L 599.826044 239.917753 
L 600.542911 240.881319 
L 601.618211 241.882123 
L 602.693511 242.889542 
L 604.664894 245.107344 
L 605.560977 245.706126 
L 606.45706 246.068417 
L 607.53236 246.236611 
L 608.60766 246.166882 
L 609.862177 245.859502 
L 611.654343 245.167015 
L 614.52181 244.031949 
L 615.776326 243.75435 
L 617.030843 243.718691 
L 622.407342 243.974661 
L 634.414858 244.84296 
L 646.422373 246.017927 
L 648.931406 245.825543 
L 652.874173 245.259195 
L 657.175372 244.688157 
L 663.089522 244.267796 
L 672.408787 243.633425 
L 674.559387 243.140905 
L 677.06842 242.31353 
L 680.29432 240.982874 
L 688.717503 237.359542 
L 691.226536 236.331056 
L 694.452435 234.749504 
L 705.563868 229.056697 
L 710.223501 227.096691 
L 717.21295 224.429057 
L 727.428299 220.717089 
L 729.578899 220.357446 
L 731.908715 220.207845 
L 734.596965 220.270681 
L 738.181298 220.597449 
L 745.170747 221.276096 
L 748.038214 221.285148 
L 751.801763 221.048584 
L 756.28218 220.531569 
L 765.063795 219.223646 
L 768.648128 218.746256 
L 768.648128 218.746256 
" clip-path="url(#p0b4693a915)" style="fill: none; stroke: #925e9f; stroke-width: 1.5; stroke-linecap: square"/>
   </g>
   <g id="patch_13">
    <path d="M 580.658824 256.32 
L 580.658824 34.56 
" style="fill: none; stroke: #000000; stroke-width: 0.8; stroke-linejoin: miter; stroke-linecap: square"/>
   </g>
   <g id="patch_14">
    <path d="M 777.6 256.32 
L 777.6 34.56 
" style="fill: none; stroke: #000000; stroke-width: 0.8; stroke-linejoin: miter; stroke-linecap: square"/>
   </g>
   <g id="patch_15">
    <path d="M 580.658824 256.32 
L 777.6 256.32 
" style="fill: none; stroke: #000000; stroke-width: 0.8; stroke-linejoin: miter; stroke-linecap: square"/>
   </g>
   <g id="patch_16">
    <path d="M 580.658824 34.56 
L 777.6 34.56 
" style="fill: none; stroke: #000000; stroke-width: 0.8; stroke-linejoin: miter; stroke-linecap: square"/>
   </g>
  </g>
  <g id="text_40">
   <!-- Interpolated ATP/ADP/AMP dynamics -->
   <g transform="translate(286.886719 16.397812) scale(0.14 -0.14)">
    <defs>
     <path id="DejaVuSans-Bold-49" d="M 588 4666 
L 1791 4666 
L 1791 0 
L 588 0 
L 588 4666 
z
" transform="scale(0.015625)"/>
     <path id="DejaVuSans-Bold-6e" d="M 4056 2131 
L 4056 0 
L 2931 0 
L 2931 347 
L 2931 1631 
Q 2931 2084 2911 2256 
Q 2891 2428 2841 2509 
Q 2775 2619 2662 2680 
Q 2550 2741 2406 2741 
Q 2056 2741 1856 2470 
Q 1656 2200 1656 1722 
L 1656 0 
L 538 0 
L 538 3500 
L 1656 3500 
L 1656 2988 
Q 1909 3294 2193 3439 
Q 2478 3584 2822 3584 
Q 3428 3584 3742 3212 
Q 4056 2841 4056 2131 
z
" transform="scale(0.015625)"/>
     <path id="DejaVuSans-Bold-74" d="M 1759 4494 
L 1759 3500 
L 2913 3500 
L 2913 2700 
L 1759 2700 
L 1759 1216 
Q 1759 972 1856 886 
Q 1953 800 2241 800 
L 2816 800 
L 2816 0 
L 1856 0 
Q 1194 0 917 276 
Q 641 553 641 1216 
L 641 2700 
L 84 2700 
L 84 3500 
L 641 3500 
L 641 4494 
L 1759 4494 
z
" transform="scale(0.015625)"/>
     <path id="DejaVuSans-Bold-65" d="M 4031 1759 
L 4031 1441 
L 1416 1441 
Q 1456 1047 1700 850 
Q 1944 653 2381 653 
Q 2734 653 3104 758 
Q 3475 863 3866 1075 
L 3866 213 
Q 3469 63 3072 -14 
Q 2675 -91 2278 -91 
Q 1328 -91 801 392 
Q 275 875 275 1747 
Q 275 2603 792 3093 
Q 1309 3584 2216 3584 
Q 3041 3584 3536 3087 
Q 4031 2591 4031 1759 
z
M 2881 2131 
Q 2881 2450 2695 2645 
Q 2509 2841 2209 2841 
Q 1884 2841 1681 2658 
Q 1478 2475 1428 2131 
L 2881 2131 
z
" transform="scale(0.015625)"/>
     <path id="DejaVuSans-Bold-72" d="M 3138 2547 
Q 2991 2616 2845 2648 
Q 2700 2681 2553 2681 
Q 2122 2681 1889 2404 
Q 1656 2128 1656 1613 
L 1656 0 
L 538 0 
L 538 3500 
L 1656 3500 
L 1656 2925 
Q 1872 3269 2151 3426 
Q 2431 3584 2822 3584 
Q 2878 3584 2943 3579 
Q 3009 3575 3134 3559 
L 3138 2547 
z
" transform="scale(0.015625)"/>
     <path id="DejaVuSans-Bold-70" d="M 1656 506 
L 1656 -1331 
L 538 -1331 
L 538 3500 
L 1656 3500 
L 1656 2988 
Q 1888 3294 2169 3439 
Q 2450 3584 2816 3584 
Q 3463 3584 3878 3070 
Q 4294 2556 4294 1747 
Q 4294 938 3878 423 
Q 3463 -91 2816 -91 
Q 2450 -91 2169 54 
Q 1888 200 1656 506 
z
M 2400 2772 
Q 2041 2772 1848 2508 
Q 1656 2244 1656 1747 
Q 1656 1250 1848 986 
Q 2041 722 2400 722 
Q 2759 722 2948 984 
Q 3138 1247 3138 1747 
Q 3138 2247 2948 2509 
Q 2759 2772 2400 2772 
z
" transform="scale(0.015625)"/>
     <path id="DejaVuSans-Bold-6f" d="M 2203 2784 
Q 1831 2784 1636 2517 
Q 1441 2250 1441 1747 
Q 1441 1244 1636 976 
Q 1831 709 2203 709 
Q 2569 709 2762 976 
Q 2956 1244 2956 1747 
Q 2956 2250 2762 2517 
Q 2569 2784 2203 2784 
z
M 2203 3584 
Q 3106 3584 3614 3096 
Q 4122 2609 4122 1747 
Q 4122 884 3614 396 
Q 3106 -91 2203 -91 
Q 1297 -91 786 396 
Q 275 884 275 1747 
Q 275 2609 786 3096 
Q 1297 3584 2203 3584 
z
" transform="scale(0.015625)"/>
     <path id="DejaVuSans-Bold-6c" d="M 538 4863 
L 1656 4863 
L 1656 0 
L 538 0 
L 538 4863 
z
" transform="scale(0.015625)"/>
     <path id="DejaVuSans-Bold-61" d="M 2106 1575 
Q 1756 1575 1579 1456 
Q 1403 1338 1403 1106 
Q 1403 894 1545 773 
Q 1688 653 1941 653 
Q 2256 653 2472 879 
Q 2688 1106 2688 1447 
L 2688 1575 
L 2106 1575 
z
M 3816 1997 
L 3816 0 
L 2688 0 
L 2688 519 
Q 2463 200 2181 54 
Q 1900 -91 1497 -91 
Q 953 -91 614 226 
Q 275 544 275 1050 
Q 275 1666 698 1953 
Q 1122 2241 2028 2241 
L 2688 2241 
L 2688 2328 
Q 2688 2594 2478 2717 
Q 2269 2841 1825 2841 
Q 1466 2841 1156 2769 
Q 847 2697 581 2553 
L 581 3406 
Q 941 3494 1303 3539 
Q 1666 3584 2028 3584 
Q 2975 3584 3395 3211 
Q 3816 2838 3816 1997 
z
" transform="scale(0.015625)"/>
     <path id="DejaVuSans-Bold-64" d="M 2919 2988 
L 2919 4863 
L 4044 4863 
L 4044 0 
L 2919 0 
L 2919 506 
Q 2688 197 2409 53 
Q 2131 -91 1766 -91 
Q 1119 -91 703 423 
Q 288 938 288 1747 
Q 288 2556 703 3070 
Q 1119 3584 1766 3584 
Q 2128 3584 2408 3439 
Q 2688 3294 2919 2988 
z
M 2181 722 
Q 2541 722 2730 984 
Q 2919 1247 2919 1747 
Q 2919 2247 2730 2509 
Q 2541 2772 2181 2772 
Q 1825 2772 1636 2509 
Q 1447 2247 1447 1747 
Q 1447 1247 1636 984 
Q 1825 722 2181 722 
z
" transform="scale(0.015625)"/>
     <path id="DejaVuSans-Bold-20" transform="scale(0.015625)"/>
     <path id="DejaVuSans-Bold-41" d="M 3419 850 
L 1538 850 
L 1241 0 
L 31 0 
L 1759 4666 
L 3194 4666 
L 4922 0 
L 3713 0 
L 3419 850 
z
M 1838 1716 
L 3116 1716 
L 2478 3572 
L 1838 1716 
z
" transform="scale(0.015625)"/>
     <path id="DejaVuSans-Bold-54" d="M 31 4666 
L 4331 4666 
L 4331 3756 
L 2784 3756 
L 2784 0 
L 1581 0 
L 1581 3756 
L 31 3756 
L 31 4666 
z
" transform="scale(0.015625)"/>
     <path id="DejaVuSans-Bold-50" d="M 588 4666 
L 2584 4666 
Q 3475 4666 3951 4270 
Q 4428 3875 4428 3144 
Q 4428 2409 3951 2014 
Q 3475 1619 2584 1619 
L 1791 1619 
L 1791 0 
L 588 0 
L 588 4666 
z
M 1791 3794 
L 1791 2491 
L 2456 2491 
Q 2806 2491 2997 2661 
Q 3188 2831 3188 3144 
Q 3188 3456 2997 3625 
Q 2806 3794 2456 3794 
L 1791 3794 
z
" transform="scale(0.015625)"/>
     <path id="DejaVuSans-Bold-2f" d="M 1644 4666 
L 2338 4666 
L 691 -594 
L 0 -594 
L 1644 4666 
z
" transform="scale(0.015625)"/>
     <path id="DejaVuSans-Bold-44" d="M 1791 3756 
L 1791 909 
L 2222 909 
Q 2959 909 3348 1275 
Q 3738 1641 3738 2338 
Q 3738 3031 3350 3393 
Q 2963 3756 2222 3756 
L 1791 3756 
z
M 588 4666 
L 1856 4666 
Q 2919 4666 3439 4514 
Q 3959 4363 4331 4000 
Q 4659 3684 4818 3271 
Q 4978 2859 4978 2338 
Q 4978 1809 4818 1395 
Q 4659 981 4331 666 
Q 3956 303 3431 151 
Q 2906 0 1856 0 
L 588 0 
L 588 4666 
z
" transform="scale(0.015625)"/>
     <path id="DejaVuSans-Bold-4d" d="M 588 4666 
L 2119 4666 
L 3181 2169 
L 4250 4666 
L 5778 4666 
L 5778 0 
L 4641 0 
L 4641 3413 
L 3566 897 
L 2803 897 
L 1728 3413 
L 1728 0 
L 588 0 
L 588 4666 
z
" transform="scale(0.015625)"/>
     <path id="DejaVuSans-Bold-79" d="M 78 3500 
L 1197 3500 
L 2138 1125 
L 2938 3500 
L 4056 3500 
L 2584 -331 
Q 2363 -916 2067 -1148 
Q 1772 -1381 1288 -1381 
L 641 -1381 
L 641 -647 
L 991 -647 
Q 1275 -647 1404 -556 
Q 1534 -466 1606 -231 
L 1638 -134 
L 78 3500 
z
" transform="scale(0.015625)"/>
     <path id="DejaVuSans-Bold-6d" d="M 3781 2919 
Q 3994 3244 4286 3414 
Q 4578 3584 4928 3584 
Q 5531 3584 5847 3212 
Q 6163 2841 6163 2131 
L 6163 0 
L 5038 0 
L 5038 1825 
Q 5041 1866 5042 1909 
Q 5044 1953 5044 2034 
Q 5044 2406 4934 2573 
Q 4825 2741 4581 2741 
Q 4263 2741 4089 2478 
Q 3916 2216 3909 1719 
L 3909 0 
L 2784 0 
L 2784 1825 
Q 2784 2406 2684 2573 
Q 2584 2741 2328 2741 
Q 2006 2741 1831 2477 
Q 1656 2213 1656 1722 
L 1656 0 
L 531 0 
L 531 3500 
L 1656 3500 
L 1656 2988 
Q 1863 3284 2130 3434 
Q 2397 3584 2719 3584 
Q 3081 3584 3359 3409 
Q 3638 3234 3781 2919 
z
" transform="scale(0.015625)"/>
     <path id="DejaVuSans-Bold-69" d="M 538 3500 
L 1656 3500 
L 1656 0 
L 538 0 
L 538 3500 
z
M 538 4863 
L 1656 4863 
L 1656 3950 
L 538 3950 
L 538 4863 
z
" transform="scale(0.015625)"/>
     <path id="DejaVuSans-Bold-63" d="M 3366 3391 
L 3366 2478 
Q 3138 2634 2908 2709 
Q 2678 2784 2431 2784 
Q 1963 2784 1702 2511 
Q 1441 2238 1441 1747 
Q 1441 1256 1702 982 
Q 1963 709 2431 709 
Q 2694 709 2930 787 
Q 3166 866 3366 1019 
L 3366 103 
Q 3103 6 2833 -42 
Q 2563 -91 2291 -91 
Q 1344 -91 809 395 
Q 275 881 275 1747 
Q 275 2613 809 3098 
Q 1344 3584 2291 3584 
Q 2566 3584 2833 3536 
Q 3100 3488 3366 3391 
z
" transform="scale(0.015625)"/>
     <path id="DejaVuSans-Bold-73" d="M 3272 3391 
L 3272 2541 
Q 2913 2691 2578 2766 
Q 2244 2841 1947 2841 
Q 1628 2841 1473 2761 
Q 1319 2681 1319 2516 
Q 1319 2381 1436 2309 
Q 1553 2238 1856 2203 
L 2053 2175 
Q 2913 2066 3209 1816 
Q 3506 1566 3506 1031 
Q 3506 472 3093 190 
Q 2681 -91 1863 -91 
Q 1516 -91 1145 -36 
Q 775 19 384 128 
L 384 978 
Q 719 816 1070 734 
Q 1422 653 1784 653 
Q 2113 653 2278 743 
Q 2444 834 2444 1013 
Q 2444 1163 2330 1236 
Q 2216 1309 1875 1350 
L 1678 1375 
Q 931 1469 631 1722 
Q 331 1975 331 2491 
Q 331 3047 712 3315 
Q 1094 3584 1881 3584 
Q 2191 3584 2531 3537 
Q 2872 3491 3272 3391 
z
" transform="scale(0.015625)"/>
    </defs>
    <use xlink:href="#DejaVuSans-Bold-49"/>
    <use xlink:href="#DejaVuSans-Bold-6e" x="37.207031"/>
    <use xlink:href="#DejaVuSans-Bold-74" x="108.398438"/>
    <use xlink:href="#DejaVuSans-Bold-65" x="156.201172"/>
    <use xlink:href="#DejaVuSans-Bold-72" x="224.023438"/>
    <use xlink:href="#DejaVuSans-Bold-70" x="273.339844"/>
    <use xlink:href="#DejaVuSans-Bold-6f" x="344.921875"/>
    <use xlink:href="#DejaVuSans-Bold-6c" x="413.623047"/>
    <use xlink:href="#DejaVuSans-Bold-61" x="447.900391"/>
    <use xlink:href="#DejaVuSans-Bold-74" x="515.380859"/>
    <use xlink:href="#DejaVuSans-Bold-65" x="563.183594"/>
    <use xlink:href="#DejaVuSans-Bold-64" x="631.005859"/>
    <use xlink:href="#DejaVuSans-Bold-20" x="702.587891"/>
    <use xlink:href="#DejaVuSans-Bold-41" x="737.402344"/>
    <use xlink:href="#DejaVuSans-Bold-54" x="807.044922"/>
    <use xlink:href="#DejaVuSans-Bold-50" x="875.257812"/>
    <use xlink:href="#DejaVuSans-Bold-2f" x="948.548828"/>
    <use xlink:href="#DejaVuSans-Bold-41" x="985.072266"/>
    <use xlink:href="#DejaVuSans-Bold-44" x="1062.464844"/>
    <use xlink:href="#DejaVuSans-Bold-50" x="1145.472656"/>
    <use xlink:href="#DejaVuSans-Bold-2f" x="1218.763672"/>
    <use xlink:href="#DejaVuSans-Bold-41" x="1255.287109"/>
    <use xlink:href="#DejaVuSans-Bold-4d" x="1332.679688"/>
    <use xlink:href="#DejaVuSans-Bold-50" x="1432.191406"/>
    <use xlink:href="#DejaVuSans-Bold-20" x="1505.482422"/>
    <use xlink:href="#DejaVuSans-Bold-64" x="1540.296875"/>
    <use xlink:href="#DejaVuSans-Bold-79" x="1611.878906"/>
    <use xlink:href="#DejaVuSans-Bold-6e" x="1677.064453"/>
    <use xlink:href="#DejaVuSans-Bold-61" x="1748.255859"/>
    <use xlink:href="#DejaVuSans-Bold-6d" x="1815.736328"/>
    <use xlink:href="#DejaVuSans-Bold-69" x="1919.935547"/>
    <use xlink:href="#DejaVuSans-Bold-63" x="1954.212891"/>
    <use xlink:href="#DejaVuSans-Bold-73" x="2013.490234"/>
   </g>
  </g>
  <g id="legend_1">
   <g id="patch_17">
    <path d="M 717.101562 83.714375 
L 770.6 83.714375 
Q 772.6 83.714375 772.6 81.714375 
L 772.6 38.68 
Q 772.6 36.68 770.6 36.68 
L 717.101562 36.68 
Q 715.101562 36.68 715.101562 38.68 
L 715.101562 81.714375 
Q 715.101562 83.714375 717.101562 83.714375 
z
" style="fill: #ffffff; opacity: 0.8; stroke: #cccccc; stroke-linejoin: miter"/>
   </g>
   <g id="line2d_45">
    <path d="M 719.101562 44.778438 
L 729.101562 44.778438 
L 739.101562 44.778438 
" style="fill: none; stroke: #ed0000; stroke-width: 1.5; stroke-linecap: square"/>
   </g>
   <g id="text_41">
    <!-- ATP -->
    <g transform="translate(747.101562 48.278438) scale(0.1 -0.1)">
     <defs>
      <path id="DejaVuSans-41" d="M 2188 4044 
L 1331 1722 
L 3047 1722 
L 2188 4044 
z
M 1831 4666 
L 2547 4666 
L 4325 0 
L 3669 0 
L 3244 1197 
L 1141 1197 
L 716 0 
L 50 0 
L 1831 4666 
z
" transform="scale(0.015625)"/>
      <path id="DejaVuSans-50" d="M 1259 4147 
L 1259 2394 
L 2053 2394 
Q 2494 2394 2734 2622 
Q 2975 2850 2975 3272 
Q 2975 3691 2734 3919 
Q 2494 4147 2053 4147 
L 1259 4147 
z
M 628 4666 
L 2053 4666 
Q 2838 4666 3239 4311 
Q 3641 3956 3641 3272 
Q 3641 2581 3239 2228 
Q 2838 1875 2053 1875 
L 1259 1875 
L 1259 0 
L 628 0 
L 628 4666 
z
" transform="scale(0.015625)"/>
     </defs>
     <use xlink:href="#DejaVuSans-41"/>
     <use xlink:href="#DejaVuSans-54" x="60.658203"/>
     <use xlink:href="#DejaVuSans-50" x="121.742188"/>
    </g>
   </g>
   <g id="line2d_46">
    <path d="M 719.101562 59.456563 
L 729.101562 59.456563 
L 739.101562 59.456563 
" style="fill: none; stroke: #42b540; stroke-width: 1.5; stroke-linecap: square"/>
   </g>
   <g id="text_42">
    <!-- ADP -->
    <g transform="translate(747.101562 62.956563) scale(0.1 -0.1)">
     <defs>
      <path id="DejaVuSans-44" d="M 1259 4147 
L 1259 519 
L 2022 519 
Q 2988 519 3436 956 
Q 3884 1394 3884 2338 
Q 3884 3275 3436 3711 
Q 2988 4147 2022 4147 
L 1259 4147 
z
M 628 4666 
L 1925 4666 
Q 3281 4666 3915 4102 
Q 4550 3538 4550 2338 
Q 4550 1131 3912 565 
Q 3275 0 1925 0 
L 628 0 
L 628 4666 
z
" transform="scale(0.015625)"/>
     </defs>
     <use xlink:href="#DejaVuSans-41"/>
     <use xlink:href="#DejaVuSans-44" x="68.408203"/>
     <use xlink:href="#DejaVuSans-50" x="145.410156"/>
    </g>
   </g>
   <g id="line2d_47">
    <path d="M 719.101562 74.134688 
L 729.101562 74.134688 
L 739.101562 74.134688 
" style="fill: none; stroke: #925e9f; stroke-width: 1.5; stroke-linecap: square"/>
   </g>
   <g id="text_43">
    <!-- AMP -->
    <g transform="translate(747.101562 77.634688) scale(0.1 -0.1)">
     <use xlink:href="#DejaVuSans-41"/>
     <use xlink:href="#DejaVuSans-4d" x="68.408203"/>
     <use xlink:href="#DejaVuSans-50" x="154.6875"/>
    </g>
   </g>
  </g>
 </g>
 <defs>
  <clipPath id="p558817c841">
   <rect x="108" y="34.56" width="196.941176" height="221.76"/>
  </clipPath>
  <clipPath id="pf9b9e3d000">
   <rect x="344.329412" y="34.56" width="196.941176" height="221.76"/>
  </clipPath>
  <clipPath id="p0b4693a915">
   <rect x="580.658824" y="34.56" width="196.941176" height="221.76"/>
  </clipPath>
 </defs>
</svg>
