<?xml version="1.0" encoding="utf-8" standalone="no"?>
<!DOCTYPE svg PUBLIC "-//W3C//DTD SVG 1.1//EN"
  "http://www.w3.org/Graphics/SVG/1.1/DTD/svg11.dtd">
<svg xmlns:xlink="http://www.w3.org/1999/xlink" width="720pt" height="288pt" viewBox="0 0 720 288" xmlns="http://www.w3.org/2000/svg" version="1.1">
 <metadata>
  <rdf:RDF xmlns:dc="http://purl.org/dc/elements/1.1/" xmlns:cc="http://creativecommons.org/ns#" xmlns:rdf="http://www.w3.org/1999/02/22-rdf-syntax-ns#">
   <cc:Work>
    <dc:type rdf:resource="http://purl.org/dc/dcmitype/StillImage"/>
    <dc:date>2024-08-15T10:40:51.995925</dc:date>
    <dc:format>image/svg+xml</dc:format>
    <dc:creator>
     <cc:Agent>
      <dc:title>Matplotlib v3.8.4, https://matplotlib.org/</dc:title>
     </cc:Agent>
    </dc:creator>
   </cc:Work>
  </rdf:RDF>
 </metadata>
 <defs>
  <style type="text/css">*{stroke-linejoin: round; stroke-linecap: butt}</style>
 </defs>
 <g id="figure_1">
  <g id="patch_1">
   <path d="M 0 288 
L 720 288 
L 720 0 
L 0 0 
z
" style="fill: #ffffff"/>
  </g>
  <g id="axes_1">
   <g id="patch_2">
    <path d="M 90 256.32 
L 343.636364 256.32 
L 343.636364 34.56 
L 90 34.56 
z
" style="fill: #ffffff"/>
   </g>
   <g id="PathCollection_1">
    <defs>
     <path id="m1450794f46" d="M 0 3 
C 0.795609 3 1.55874 2.683901 2.12132 2.12132 
C 2.683901 1.55874 3 0.795609 3 0 
C 3 -0.795609 2.683901 -1.55874 2.12132 -2.12132 
C 1.55874 -2.683901 0.795609 -3 0 -3 
C -0.795609 -3 -1.55874 -2.683901 -2.12132 -2.12132 
C -2.683901 -1.55874 -3 -0.795609 -3 0 
C -3 0.795609 -2.683901 1.55874 -2.12132 2.12132 
C -1.55874 2.683901 -0.795609 3 0 3 
z
" style="stroke: #00468b"/>
    </defs>
    <g clip-path="url(#p0b33f5e8d0)">
     <use xlink:href="#m1450794f46" x="101.528926" y="246.198438" style="fill: #00468b; stroke: #00468b"/>
     <use xlink:href="#m1450794f46" x="104.411157" y="186.937063" style="fill: #00468b; stroke: #00468b"/>
     <use xlink:href="#m1450794f46" x="107.293388" y="122.105962" style="fill: #00468b; stroke: #00468b"/>
     <use xlink:href="#m1450794f46" x="110.17562" y="88.666441" style="fill: #00468b; stroke: #00468b"/>
     <use xlink:href="#m1450794f46" x="113.057851" y="52.96077" style="fill: #00468b; stroke: #00468b"/>
     <use xlink:href="#m1450794f46" x="118.822314" y="68.707135" style="fill: #00468b; stroke: #00468b"/>
     <use xlink:href="#m1450794f46" x="136.115702" y="95.287596" style="fill: #00468b; stroke: #00468b"/>
     <use xlink:href="#m1450794f46" x="153.409091" y="131.595002" style="fill: #00468b; stroke: #00468b"/>
     <use xlink:href="#m1450794f46" x="187.995868" y="176.535144" style="fill: #00468b; stroke: #00468b"/>
     <use xlink:href="#m1450794f46" x="205.289256" y="197.763057" style="fill: #00468b; stroke: #00468b"/>
     <use xlink:href="#m1450794f46" x="228.347107" y="218.134586" style="fill: #00468b; stroke: #00468b"/>
     <use xlink:href="#m1450794f46" x="245.640496" y="230.852373" style="fill: #00468b; stroke: #00468b"/>
     <use xlink:href="#m1450794f46" x="274.46281" y="238.844776" style="fill: #00468b; stroke: #00468b"/>
     <use xlink:href="#m1450794f46" x="303.285124" y="245.02738" style="fill: #00468b; stroke: #00468b"/>
     <use xlink:href="#m1450794f46" x="332.107438" y="246.198438" style="fill: #00468b; stroke: #00468b"/>
    </g>
   </g>
   <g id="matplotlib.axis_1">
    <g id="xtick_1">
     <g id="line2d_1">
      <defs>
       <path id="m8e58e2907a" d="M 0 0 
L 0 3.5 
" style="stroke: #000000; stroke-width: 0.8"/>
      </defs>
      <g>
       <use xlink:href="#m8e58e2907a" x="101.528926" y="256.32" style="stroke: #000000; stroke-width: 0.8"/>
      </g>
     </g>
     <g id="text_1">
      <!-- 0 -->
      <g transform="translate(98.347676 270.918437) scale(0.1 -0.1)">
       <defs>
        <path id="DejaVuSans-30" d="M 2034 4250 
Q 1547 4250 1301 3770 
Q 1056 3291 1056 2328 
Q 1056 1369 1301 889 
Q 1547 409 2034 409 
Q 2525 409 2770 889 
Q 3016 1369 3016 2328 
Q 3016 3291 2770 3770 
Q 2525 4250 2034 4250 
z
M 2034 4750 
Q 2819 4750 3233 4129 
Q 3647 3509 3647 2328 
Q 3647 1150 3233 529 
Q 2819 -91 2034 -91 
Q 1250 -91 836 529 
Q 422 1150 422 2328 
Q 422 3509 836 4129 
Q 1250 4750 2034 4750 
z
" transform="scale(0.015625)"/>
       </defs>
       <use xlink:href="#DejaVuSans-30"/>
      </g>
     </g>
    </g>
    <g id="xtick_2">
     <g id="line2d_2">
      <g>
       <use xlink:href="#m8e58e2907a" x="159.173554" y="256.32" style="stroke: #000000; stroke-width: 0.8"/>
      </g>
     </g>
     <g id="text_2">
      <!-- 100 -->
      <g transform="translate(149.629804 270.918437) scale(0.1 -0.1)">
       <defs>
        <path id="DejaVuSans-31" d="M 794 531 
L 1825 531 
L 1825 4091 
L 703 3866 
L 703 4441 
L 1819 4666 
L 2450 4666 
L 2450 531 
L 3481 531 
L 3481 0 
L 794 0 
L 794 531 
z
" transform="scale(0.015625)"/>
       </defs>
       <use xlink:href="#DejaVuSans-31"/>
       <use xlink:href="#DejaVuSans-30" x="63.623047"/>
       <use xlink:href="#DejaVuSans-30" x="127.246094"/>
      </g>
     </g>
    </g>
    <g id="xtick_3">
     <g id="line2d_3">
      <g>
       <use xlink:href="#m8e58e2907a" x="216.818182" y="256.32" style="stroke: #000000; stroke-width: 0.8"/>
      </g>
     </g>
     <g id="text_3">
      <!-- 200 -->
      <g transform="translate(207.274432 270.918437) scale(0.1 -0.1)">
       <defs>
        <path id="DejaVuSans-32" d="M 1228 531 
L 3431 531 
L 3431 0 
L 469 0 
L 469 531 
Q 828 903 1448 1529 
Q 2069 2156 2228 2338 
Q 2531 2678 2651 2914 
Q 2772 3150 2772 3378 
Q 2772 3750 2511 3984 
Q 2250 4219 1831 4219 
Q 1534 4219 1204 4116 
Q 875 4013 500 3803 
L 500 4441 
Q 881 4594 1212 4672 
Q 1544 4750 1819 4750 
Q 2544 4750 2975 4387 
Q 3406 4025 3406 3419 
Q 3406 3131 3298 2873 
Q 3191 2616 2906 2266 
Q 2828 2175 2409 1742 
Q 1991 1309 1228 531 
z
" transform="scale(0.015625)"/>
       </defs>
       <use xlink:href="#DejaVuSans-32"/>
       <use xlink:href="#DejaVuSans-30" x="63.623047"/>
       <use xlink:href="#DejaVuSans-30" x="127.246094"/>
      </g>
     </g>
    </g>
    <g id="xtick_4">
     <g id="line2d_4">
      <g>
       <use xlink:href="#m8e58e2907a" x="274.46281" y="256.32" style="stroke: #000000; stroke-width: 0.8"/>
      </g>
     </g>
     <g id="text_4">
      <!-- 300 -->
      <g transform="translate(264.91906 270.918437) scale(0.1 -0.1)">
       <defs>
        <path id="DejaVuSans-33" d="M 2597 2516 
Q 3050 2419 3304 2112 
Q 3559 1806 3559 1356 
Q 3559 666 3084 287 
Q 2609 -91 1734 -91 
Q 1441 -91 1130 -33 
Q 819 25 488 141 
L 488 750 
Q 750 597 1062 519 
Q 1375 441 1716 441 
Q 2309 441 2620 675 
Q 2931 909 2931 1356 
Q 2931 1769 2642 2001 
Q 2353 2234 1838 2234 
L 1294 2234 
L 1294 2753 
L 1863 2753 
Q 2328 2753 2575 2939 
Q 2822 3125 2822 3475 
Q 2822 3834 2567 4026 
Q 2313 4219 1838 4219 
Q 1578 4219 1281 4162 
Q 984 4106 628 3988 
L 628 4550 
Q 988 4650 1302 4700 
Q 1616 4750 1894 4750 
Q 2613 4750 3031 4423 
Q 3450 4097 3450 3541 
Q 3450 3153 3228 2886 
Q 3006 2619 2597 2516 
z
" transform="scale(0.015625)"/>
       </defs>
       <use xlink:href="#DejaVuSans-33"/>
       <use xlink:href="#DejaVuSans-30" x="63.623047"/>
       <use xlink:href="#DejaVuSans-30" x="127.246094"/>
      </g>
     </g>
    </g>
    <g id="xtick_5">
     <g id="line2d_5">
      <g>
       <use xlink:href="#m8e58e2907a" x="332.107438" y="256.32" style="stroke: #000000; stroke-width: 0.8"/>
      </g>
     </g>
     <g id="text_5">
      <!-- 400 -->
      <g transform="translate(322.563688 270.918437) scale(0.1 -0.1)">
       <defs>
        <path id="DejaVuSans-34" d="M 2419 4116 
L 825 1625 
L 2419 1625 
L 2419 4116 
z
M 2253 4666 
L 3047 4666 
L 3047 1625 
L 3713 1625 
L 3713 1100 
L 3047 1100 
L 3047 0 
L 2419 0 
L 2419 1100 
L 313 1100 
L 313 1709 
L 2253 4666 
z
" transform="scale(0.015625)"/>
       </defs>
       <use xlink:href="#DejaVuSans-34"/>
       <use xlink:href="#DejaVuSans-30" x="63.623047"/>
       <use xlink:href="#DejaVuSans-30" x="127.246094"/>
      </g>
     </g>
    </g>
    <g id="text_6">
     <!-- Time (in seconds) -->
     <g transform="translate(172.509588 284.596563) scale(0.1 -0.1)">
      <defs>
       <path id="DejaVuSans-54" d="M -19 4666 
L 3928 4666 
L 3928 4134 
L 2272 4134 
L 2272 0 
L 1638 0 
L 1638 4134 
L -19 4134 
L -19 4666 
z
" transform="scale(0.015625)"/>
       <path id="DejaVuSans-69" d="M 603 3500 
L 1178 3500 
L 1178 0 
L 603 0 
L 603 3500 
z
M 603 4863 
L 1178 4863 
L 1178 4134 
L 603 4134 
L 603 4863 
z
" transform="scale(0.015625)"/>
       <path id="DejaVuSans-6d" d="M 3328 2828 
Q 3544 3216 3844 3400 
Q 4144 3584 4550 3584 
Q 5097 3584 5394 3201 
Q 5691 2819 5691 2113 
L 5691 0 
L 5113 0 
L 5113 2094 
Q 5113 2597 4934 2840 
Q 4756 3084 4391 3084 
Q 3944 3084 3684 2787 
Q 3425 2491 3425 1978 
L 3425 0 
L 2847 0 
L 2847 2094 
Q 2847 2600 2669 2842 
Q 2491 3084 2119 3084 
Q 1678 3084 1418 2786 
Q 1159 2488 1159 1978 
L 1159 0 
L 581 0 
L 581 3500 
L 1159 3500 
L 1159 2956 
Q 1356 3278 1631 3431 
Q 1906 3584 2284 3584 
Q 2666 3584 2933 3390 
Q 3200 3197 3328 2828 
z
" transform="scale(0.015625)"/>
       <path id="DejaVuSans-65" d="M 3597 1894 
L 3597 1613 
L 953 1613 
Q 991 1019 1311 708 
Q 1631 397 2203 397 
Q 2534 397 2845 478 
Q 3156 559 3463 722 
L 3463 178 
Q 3153 47 2828 -22 
Q 2503 -91 2169 -91 
Q 1331 -91 842 396 
Q 353 884 353 1716 
Q 353 2575 817 3079 
Q 1281 3584 2069 3584 
Q 2775 3584 3186 3129 
Q 3597 2675 3597 1894 
z
M 3022 2063 
Q 3016 2534 2758 2815 
Q 2500 3097 2075 3097 
Q 1594 3097 1305 2825 
Q 1016 2553 972 2059 
L 3022 2063 
z
" transform="scale(0.015625)"/>
       <path id="DejaVuSans-20" transform="scale(0.015625)"/>
       <path id="DejaVuSans-28" d="M 1984 4856 
Q 1566 4138 1362 3434 
Q 1159 2731 1159 2009 
Q 1159 1288 1364 580 
Q 1569 -128 1984 -844 
L 1484 -844 
Q 1016 -109 783 600 
Q 550 1309 550 2009 
Q 550 2706 781 3412 
Q 1013 4119 1484 4856 
L 1984 4856 
z
" transform="scale(0.015625)"/>
       <path id="DejaVuSans-6e" d="M 3513 2113 
L 3513 0 
L 2938 0 
L 2938 2094 
Q 2938 2591 2744 2837 
Q 2550 3084 2163 3084 
Q 1697 3084 1428 2787 
Q 1159 2491 1159 1978 
L 1159 0 
L 581 0 
L 581 3500 
L 1159 3500 
L 1159 2956 
Q 1366 3272 1645 3428 
Q 1925 3584 2291 3584 
Q 2894 3584 3203 3211 
Q 3513 2838 3513 2113 
z
" transform="scale(0.015625)"/>
       <path id="DejaVuSans-73" d="M 2834 3397 
L 2834 2853 
Q 2591 2978 2328 3040 
Q 2066 3103 1784 3103 
Q 1356 3103 1142 2972 
Q 928 2841 928 2578 
Q 928 2378 1081 2264 
Q 1234 2150 1697 2047 
L 1894 2003 
Q 2506 1872 2764 1633 
Q 3022 1394 3022 966 
Q 3022 478 2636 193 
Q 2250 -91 1575 -91 
Q 1294 -91 989 -36 
Q 684 19 347 128 
L 347 722 
Q 666 556 975 473 
Q 1284 391 1588 391 
Q 1994 391 2212 530 
Q 2431 669 2431 922 
Q 2431 1156 2273 1281 
Q 2116 1406 1581 1522 
L 1381 1569 
Q 847 1681 609 1914 
Q 372 2147 372 2553 
Q 372 3047 722 3315 
Q 1072 3584 1716 3584 
Q 2034 3584 2315 3537 
Q 2597 3491 2834 3397 
z
" transform="scale(0.015625)"/>
       <path id="DejaVuSans-63" d="M 3122 3366 
L 3122 2828 
Q 2878 2963 2633 3030 
Q 2388 3097 2138 3097 
Q 1578 3097 1268 2742 
Q 959 2388 959 1747 
Q 959 1106 1268 751 
Q 1578 397 2138 397 
Q 2388 397 2633 464 
Q 2878 531 3122 666 
L 3122 134 
Q 2881 22 2623 -34 
Q 2366 -91 2075 -91 
Q 1284 -91 818 406 
Q 353 903 353 1747 
Q 353 2603 823 3093 
Q 1294 3584 2113 3584 
Q 2378 3584 2631 3529 
Q 2884 3475 3122 3366 
z
" transform="scale(0.015625)"/>
       <path id="DejaVuSans-6f" d="M 1959 3097 
Q 1497 3097 1228 2736 
Q 959 2375 959 1747 
Q 959 1119 1226 758 
Q 1494 397 1959 397 
Q 2419 397 2687 759 
Q 2956 1122 2956 1747 
Q 2956 2369 2687 2733 
Q 2419 3097 1959 3097 
z
M 1959 3584 
Q 2709 3584 3137 3096 
Q 3566 2609 3566 1747 
Q 3566 888 3137 398 
Q 2709 -91 1959 -91 
Q 1206 -91 779 398 
Q 353 888 353 1747 
Q 353 2609 779 3096 
Q 1206 3584 1959 3584 
z
" transform="scale(0.015625)"/>
       <path id="DejaVuSans-64" d="M 2906 2969 
L 2906 4863 
L 3481 4863 
L 3481 0 
L 2906 0 
L 2906 525 
Q 2725 213 2448 61 
Q 2172 -91 1784 -91 
Q 1150 -91 751 415 
Q 353 922 353 1747 
Q 353 2572 751 3078 
Q 1150 3584 1784 3584 
Q 2172 3584 2448 3432 
Q 2725 3281 2906 2969 
z
M 947 1747 
Q 947 1113 1208 752 
Q 1469 391 1925 391 
Q 2381 391 2643 752 
Q 2906 1113 2906 1747 
Q 2906 2381 2643 2742 
Q 2381 3103 1925 3103 
Q 1469 3103 1208 2742 
Q 947 2381 947 1747 
z
" transform="scale(0.015625)"/>
       <path id="DejaVuSans-29" d="M 513 4856 
L 1013 4856 
Q 1481 4119 1714 3412 
Q 1947 2706 1947 2009 
Q 1947 1309 1714 600 
Q 1481 -109 1013 -844 
L 513 -844 
Q 928 -128 1133 580 
Q 1338 1288 1338 2009 
Q 1338 2731 1133 3434 
Q 928 4138 513 4856 
z
" transform="scale(0.015625)"/>
      </defs>
      <use xlink:href="#DejaVuSans-54"/>
      <use xlink:href="#DejaVuSans-69" x="57.958984"/>
      <use xlink:href="#DejaVuSans-6d" x="85.742188"/>
      <use xlink:href="#DejaVuSans-65" x="183.154297"/>
      <use xlink:href="#DejaVuSans-20" x="244.677734"/>
      <use xlink:href="#DejaVuSans-28" x="276.464844"/>
      <use xlink:href="#DejaVuSans-69" x="315.478516"/>
      <use xlink:href="#DejaVuSans-6e" x="343.261719"/>
      <use xlink:href="#DejaVuSans-20" x="406.640625"/>
      <use xlink:href="#DejaVuSans-73" x="438.427734"/>
      <use xlink:href="#DejaVuSans-65" x="490.527344"/>
      <use xlink:href="#DejaVuSans-63" x="552.050781"/>
      <use xlink:href="#DejaVuSans-6f" x="607.03125"/>
      <use xlink:href="#DejaVuSans-6e" x="668.212891"/>
      <use xlink:href="#DejaVuSans-64" x="731.591797"/>
      <use xlink:href="#DejaVuSans-73" x="795.068359"/>
      <use xlink:href="#DejaVuSans-29" x="847.167969"/>
     </g>
    </g>
   </g>
   <g id="matplotlib.axis_2">
    <g id="ytick_1">
     <g id="line2d_6">
      <defs>
       <path id="mbd985ac362" d="M 0 0 
L -3.5 0 
" style="stroke: #000000; stroke-width: 0.8"/>
      </defs>
      <g>
       <use xlink:href="#mbd985ac362" x="90" y="243.223958" style="stroke: #000000; stroke-width: 0.8"/>
      </g>
     </g>
     <g id="text_7">
      <!-- 0.10 -->
      <g transform="translate(60.734375 247.023177) scale(0.1 -0.1)">
       <defs>
        <path id="DejaVuSans-2e" d="M 684 794 
L 1344 794 
L 1344 0 
L 684 0 
L 684 794 
z
" transform="scale(0.015625)"/>
       </defs>
       <use xlink:href="#DejaVuSans-30"/>
       <use xlink:href="#DejaVuSans-2e" x="63.623047"/>
       <use xlink:href="#DejaVuSans-31" x="95.410156"/>
       <use xlink:href="#DejaVuSans-30" x="159.033203"/>
      </g>
     </g>
    </g>
    <g id="ytick_2">
     <g id="line2d_7">
      <g>
       <use xlink:href="#mbd985ac362" x="90" y="216.823189" style="stroke: #000000; stroke-width: 0.8"/>
      </g>
     </g>
     <g id="text_8">
      <!-- 0.15 -->
      <g transform="translate(60.734375 220.622408) scale(0.1 -0.1)">
       <defs>
        <path id="DejaVuSans-35" d="M 691 4666 
L 3169 4666 
L 3169 4134 
L 1269 4134 
L 1269 2991 
Q 1406 3038 1543 3061 
Q 1681 3084 1819 3084 
Q 2600 3084 3056 2656 
Q 3513 2228 3513 1497 
Q 3513 744 3044 326 
Q 2575 -91 1722 -91 
Q 1428 -91 1123 -41 
Q 819 9 494 109 
L 494 744 
Q 775 591 1075 516 
Q 1375 441 1709 441 
Q 2250 441 2565 725 
Q 2881 1009 2881 1497 
Q 2881 1984 2565 2268 
Q 2250 2553 1709 2553 
Q 1456 2553 1204 2497 
Q 953 2441 691 2322 
L 691 4666 
z
" transform="scale(0.015625)"/>
       </defs>
       <use xlink:href="#DejaVuSans-30"/>
       <use xlink:href="#DejaVuSans-2e" x="63.623047"/>
       <use xlink:href="#DejaVuSans-31" x="95.410156"/>
       <use xlink:href="#DejaVuSans-35" x="159.033203"/>
      </g>
     </g>
    </g>
    <g id="ytick_3">
     <g id="line2d_8">
      <g>
       <use xlink:href="#mbd985ac362" x="90" y="190.42242" style="stroke: #000000; stroke-width: 0.8"/>
      </g>
     </g>
     <g id="text_9">
      <!-- 0.20 -->
      <g transform="translate(60.734375 194.221639) scale(0.1 -0.1)">
       <use xlink:href="#DejaVuSans-30"/>
       <use xlink:href="#DejaVuSans-2e" x="63.623047"/>
       <use xlink:href="#DejaVuSans-32" x="95.410156"/>
       <use xlink:href="#DejaVuSans-30" x="159.033203"/>
      </g>
     </g>
    </g>
    <g id="ytick_4">
     <g id="line2d_9">
      <g>
       <use xlink:href="#mbd985ac362" x="90" y="164.021651" style="stroke: #000000; stroke-width: 0.8"/>
      </g>
     </g>
     <g id="text_10">
      <!-- 0.25 -->
      <g transform="translate(60.734375 167.820869) scale(0.1 -0.1)">
       <use xlink:href="#DejaVuSans-30"/>
       <use xlink:href="#DejaVuSans-2e" x="63.623047"/>
       <use xlink:href="#DejaVuSans-32" x="95.410156"/>
       <use xlink:href="#DejaVuSans-35" x="159.033203"/>
      </g>
     </g>
    </g>
    <g id="ytick_5">
     <g id="line2d_10">
      <g>
       <use xlink:href="#mbd985ac362" x="90" y="137.620882" style="stroke: #000000; stroke-width: 0.8"/>
      </g>
     </g>
     <g id="text_11">
      <!-- 0.30 -->
      <g transform="translate(60.734375 141.4201) scale(0.1 -0.1)">
       <use xlink:href="#DejaVuSans-30"/>
       <use xlink:href="#DejaVuSans-2e" x="63.623047"/>
       <use xlink:href="#DejaVuSans-33" x="95.410156"/>
       <use xlink:href="#DejaVuSans-30" x="159.033203"/>
      </g>
     </g>
    </g>
    <g id="ytick_6">
     <g id="line2d_11">
      <g>
       <use xlink:href="#mbd985ac362" x="90" y="111.220112" style="stroke: #000000; stroke-width: 0.8"/>
      </g>
     </g>
     <g id="text_12">
      <!-- 0.35 -->
      <g transform="translate(60.734375 115.019331) scale(0.1 -0.1)">
       <use xlink:href="#DejaVuSans-30"/>
       <use xlink:href="#DejaVuSans-2e" x="63.623047"/>
       <use xlink:href="#DejaVuSans-33" x="95.410156"/>
       <use xlink:href="#DejaVuSans-35" x="159.033203"/>
      </g>
     </g>
    </g>
    <g id="ytick_7">
     <g id="line2d_12">
      <g>
       <use xlink:href="#mbd985ac362" x="90" y="84.819343" style="stroke: #000000; stroke-width: 0.8"/>
      </g>
     </g>
     <g id="text_13">
      <!-- 0.40 -->
      <g transform="translate(60.734375 88.618562) scale(0.1 -0.1)">
       <use xlink:href="#DejaVuSans-30"/>
       <use xlink:href="#DejaVuSans-2e" x="63.623047"/>
       <use xlink:href="#DejaVuSans-34" x="95.410156"/>
       <use xlink:href="#DejaVuSans-30" x="159.033203"/>
      </g>
     </g>
    </g>
    <g id="ytick_8">
     <g id="line2d_13">
      <g>
       <use xlink:href="#mbd985ac362" x="90" y="58.418574" style="stroke: #000000; stroke-width: 0.8"/>
      </g>
     </g>
     <g id="text_14">
      <!-- 0.45 -->
      <g transform="translate(60.734375 62.217793) scale(0.1 -0.1)">
       <use xlink:href="#DejaVuSans-30"/>
       <use xlink:href="#DejaVuSans-2e" x="63.623047"/>
       <use xlink:href="#DejaVuSans-34" x="95.410156"/>
       <use xlink:href="#DejaVuSans-35" x="159.033203"/>
      </g>
     </g>
    </g>
    <g id="text_15">
     <!-- Concentration (in mM) -->
     <g transform="translate(54.654687 201.632969) rotate(-90) scale(0.1 -0.1)">
      <defs>
       <path id="DejaVuSans-43" d="M 4122 4306 
L 4122 3641 
Q 3803 3938 3442 4084 
Q 3081 4231 2675 4231 
Q 1875 4231 1450 3742 
Q 1025 3253 1025 2328 
Q 1025 1406 1450 917 
Q 1875 428 2675 428 
Q 3081 428 3442 575 
Q 3803 722 4122 1019 
L 4122 359 
Q 3791 134 3420 21 
Q 3050 -91 2638 -91 
Q 1578 -91 968 557 
Q 359 1206 359 2328 
Q 359 3453 968 4101 
Q 1578 4750 2638 4750 
Q 3056 4750 3426 4639 
Q 3797 4528 4122 4306 
z
" transform="scale(0.015625)"/>
       <path id="DejaVuSans-74" d="M 1172 4494 
L 1172 3500 
L 2356 3500 
L 2356 3053 
L 1172 3053 
L 1172 1153 
Q 1172 725 1289 603 
Q 1406 481 1766 481 
L 2356 481 
L 2356 0 
L 1766 0 
Q 1100 0 847 248 
Q 594 497 594 1153 
L 594 3053 
L 172 3053 
L 172 3500 
L 594 3500 
L 594 4494 
L 1172 4494 
z
" transform="scale(0.015625)"/>
       <path id="DejaVuSans-72" d="M 2631 2963 
Q 2534 3019 2420 3045 
Q 2306 3072 2169 3072 
Q 1681 3072 1420 2755 
Q 1159 2438 1159 1844 
L 1159 0 
L 581 0 
L 581 3500 
L 1159 3500 
L 1159 2956 
Q 1341 3275 1631 3429 
Q 1922 3584 2338 3584 
Q 2397 3584 2469 3576 
Q 2541 3569 2628 3553 
L 2631 2963 
z
" transform="scale(0.015625)"/>
       <path id="DejaVuSans-61" d="M 2194 1759 
Q 1497 1759 1228 1600 
Q 959 1441 959 1056 
Q 959 750 1161 570 
Q 1363 391 1709 391 
Q 2188 391 2477 730 
Q 2766 1069 2766 1631 
L 2766 1759 
L 2194 1759 
z
M 3341 1997 
L 3341 0 
L 2766 0 
L 2766 531 
Q 2569 213 2275 61 
Q 1981 -91 1556 -91 
Q 1019 -91 701 211 
Q 384 513 384 1019 
Q 384 1609 779 1909 
Q 1175 2209 1959 2209 
L 2766 2209 
L 2766 2266 
Q 2766 2663 2505 2880 
Q 2244 3097 1772 3097 
Q 1472 3097 1187 3025 
Q 903 2953 641 2809 
L 641 3341 
Q 956 3463 1253 3523 
Q 1550 3584 1831 3584 
Q 2591 3584 2966 3190 
Q 3341 2797 3341 1997 
z
" transform="scale(0.015625)"/>
       <path id="DejaVuSans-4d" d="M 628 4666 
L 1569 4666 
L 2759 1491 
L 3956 4666 
L 4897 4666 
L 4897 0 
L 4281 0 
L 4281 4097 
L 3078 897 
L 2444 897 
L 1241 4097 
L 1241 0 
L 628 0 
L 628 4666 
z
" transform="scale(0.015625)"/>
      </defs>
      <use xlink:href="#DejaVuSans-43"/>
      <use xlink:href="#DejaVuSans-6f" x="69.824219"/>
      <use xlink:href="#DejaVuSans-6e" x="131.005859"/>
      <use xlink:href="#DejaVuSans-63" x="194.384766"/>
      <use xlink:href="#DejaVuSans-65" x="249.365234"/>
      <use xlink:href="#DejaVuSans-6e" x="310.888672"/>
      <use xlink:href="#DejaVuSans-74" x="374.267578"/>
      <use xlink:href="#DejaVuSans-72" x="413.476562"/>
      <use xlink:href="#DejaVuSans-61" x="454.589844"/>
      <use xlink:href="#DejaVuSans-74" x="515.869141"/>
      <use xlink:href="#DejaVuSans-69" x="555.078125"/>
      <use xlink:href="#DejaVuSans-6f" x="582.861328"/>
      <use xlink:href="#DejaVuSans-6e" x="644.042969"/>
      <use xlink:href="#DejaVuSans-20" x="707.421875"/>
      <use xlink:href="#DejaVuSans-28" x="739.208984"/>
      <use xlink:href="#DejaVuSans-69" x="778.222656"/>
      <use xlink:href="#DejaVuSans-6e" x="806.005859"/>
      <use xlink:href="#DejaVuSans-20" x="869.384766"/>
      <use xlink:href="#DejaVuSans-6d" x="901.171875"/>
      <use xlink:href="#DejaVuSans-4d" x="998.583984"/>
      <use xlink:href="#DejaVuSans-29" x="1084.863281"/>
     </g>
    </g>
   </g>
   <g id="line2d_14">
    <path d="M 101.528926 246.198438 
L 105.932975 153.361408 
L 107.858306 111.57458 
L 108.469339 103.973977 
L 109.236012 97.319145 
L 110.094917 89.578826 
L 111.311219 74.926298 
L 113.605475 47.675163 
L 114.032045 45.450182 
L 114.354855 44.725155 
L 114.573905 44.651285 
L 114.769897 44.844426 
L 115.046591 45.492738 
L 115.438574 47.060867 
L 116.003492 50.352133 
L 119.012541 69.221793 
L 120.580475 73.104425 
L 122.159938 76.433769 
L 123.785517 79.349861 
L 125.514855 81.998005 
L 127.474773 84.586832 
L 130.218657 87.806713 
L 133.832975 92.091417 
L 135.746777 94.729748 
L 137.510702 97.553236 
L 139.539793 101.237693 
L 141.955103 106.10655 
L 145.1025 112.989108 
L 154.354463 133.53902 
L 156.769773 138.153557 
L 159.231198 142.382117 
L 161.773326 146.310078 
L 164.442273 150.025092 
L 167.324504 153.653203 
L 170.604483 157.416568 
L 189.068058 177.919035 
L 194.446302 184.635302 
L 206.718843 199.458804 
L 209.301322 202.249401 
L 212.102851 204.946224 
L 215.319421 207.726182 
L 219.688884 211.183558 
L 226.836818 216.832054 
L 233.46595 222.274735 
L 237.806591 225.378671 
L 248.937769 232.951392 
L 251.180145 234.044526 
L 253.566632 234.958868 
L 256.172169 235.71579 
L 259.175455 236.349972 
L 263.129876 236.940889 
L 271.321178 238.11338 
L 274.347521 238.813017 
L 280.36562 240.345349 
L 287.110041 241.807813 
L 305.769607 245.489054 
L 309.159112 245.913512 
L 312.998244 246.164411 
L 317.725103 246.239268 
L 332.101674 246.198204 
L 332.101674 246.198204 
" clip-path="url(#p0b33f5e8d0)" style="fill: none; stroke: #00468b; stroke-width: 1.5; stroke-linecap: square"/>
   </g>
   <g id="patch_3">
    <path d="M 90 256.32 
L 90 34.56 
" style="fill: none; stroke: #000000; stroke-width: 0.8; stroke-linejoin: miter; stroke-linecap: square"/>
   </g>
   <g id="patch_4">
    <path d="M 343.636364 256.32 
L 343.636364 34.56 
" style="fill: none; stroke: #000000; stroke-width: 0.8; stroke-linejoin: miter; stroke-linecap: square"/>
   </g>
   <g id="patch_5">
    <path d="M 90 256.32 
L 343.636364 256.32 
" style="fill: none; stroke: #000000; stroke-width: 0.8; stroke-linejoin: miter; stroke-linecap: square"/>
   </g>
   <g id="patch_6">
    <path d="M 90 34.56 
L 343.636364 34.56 
" style="fill: none; stroke: #000000; stroke-width: 0.8; stroke-linejoin: miter; stroke-linecap: square"/>
   </g>
   <g id="legend_1">
    <g id="patch_7">
     <path d="M 252.891051 57.238125 
L 336.636364 57.238125 
Q 338.636364 57.238125 338.636364 55.238125 
L 338.636364 41.56 
Q 338.636364 39.56 336.636364 39.56 
L 252.891051 39.56 
Q 250.891051 39.56 250.891051 41.56 
L 250.891051 55.238125 
Q 250.891051 57.238125 252.891051 57.238125 
z
" style="fill: #ffffff; opacity: 0.8; stroke: #cccccc; stroke-linejoin: miter"/>
    </g>
    <g id="PathCollection_2">
     <g>
      <use xlink:href="#m1450794f46" x="264.891051" y="48.533438" style="fill: #00468b; stroke: #00468b"/>
     </g>
    </g>
    <g id="text_16">
     <!-- ECglucose -->
     <g transform="translate(282.891051 51.158438) scale(0.1 -0.1)">
      <defs>
       <path id="DejaVuSans-45" d="M 628 4666 
L 3578 4666 
L 3578 4134 
L 1259 4134 
L 1259 2753 
L 3481 2753 
L 3481 2222 
L 1259 2222 
L 1259 531 
L 3634 531 
L 3634 0 
L 628 0 
L 628 4666 
z
" transform="scale(0.015625)"/>
       <path id="DejaVuSans-67" d="M 2906 1791 
Q 2906 2416 2648 2759 
Q 2391 3103 1925 3103 
Q 1463 3103 1205 2759 
Q 947 2416 947 1791 
Q 947 1169 1205 825 
Q 1463 481 1925 481 
Q 2391 481 2648 825 
Q 2906 1169 2906 1791 
z
M 3481 434 
Q 3481 -459 3084 -895 
Q 2688 -1331 1869 -1331 
Q 1566 -1331 1297 -1286 
Q 1028 -1241 775 -1147 
L 775 -588 
Q 1028 -725 1275 -790 
Q 1522 -856 1778 -856 
Q 2344 -856 2625 -561 
Q 2906 -266 2906 331 
L 2906 616 
Q 2728 306 2450 153 
Q 2172 0 1784 0 
Q 1141 0 747 490 
Q 353 981 353 1791 
Q 353 2603 747 3093 
Q 1141 3584 1784 3584 
Q 2172 3584 2450 3431 
Q 2728 3278 2906 2969 
L 2906 3500 
L 3481 3500 
L 3481 434 
z
" transform="scale(0.015625)"/>
       <path id="DejaVuSans-6c" d="M 603 4863 
L 1178 4863 
L 1178 0 
L 603 0 
L 603 4863 
z
" transform="scale(0.015625)"/>
       <path id="DejaVuSans-75" d="M 544 1381 
L 544 3500 
L 1119 3500 
L 1119 1403 
Q 1119 906 1312 657 
Q 1506 409 1894 409 
Q 2359 409 2629 706 
Q 2900 1003 2900 1516 
L 2900 3500 
L 3475 3500 
L 3475 0 
L 2900 0 
L 2900 538 
Q 2691 219 2414 64 
Q 2138 -91 1772 -91 
Q 1169 -91 856 284 
Q 544 659 544 1381 
z
M 1991 3584 
L 1991 3584 
z
" transform="scale(0.015625)"/>
      </defs>
      <use xlink:href="#DejaVuSans-45"/>
      <use xlink:href="#DejaVuSans-43" x="63.183594"/>
      <use xlink:href="#DejaVuSans-67" x="133.007812"/>
      <use xlink:href="#DejaVuSans-6c" x="196.484375"/>
      <use xlink:href="#DejaVuSans-75" x="224.267578"/>
      <use xlink:href="#DejaVuSans-63" x="287.646484"/>
      <use xlink:href="#DejaVuSans-6f" x="342.626953"/>
      <use xlink:href="#DejaVuSans-73" x="403.808594"/>
      <use xlink:href="#DejaVuSans-65" x="455.908203"/>
     </g>
    </g>
   </g>
  </g>
  <g id="axes_2">
   <g id="patch_8">
    <path d="M 394.363636 256.32 
L 648 256.32 
L 648 34.56 
L 394.363636 34.56 
z
" style="fill: #ffffff"/>
   </g>
   <g id="PathCollection_3">
    <g clip-path="url(#p217b43d7b5)">
     <use xlink:href="#m1450794f46" x="405.892562" y="129.043936" style="fill: #00468b; stroke: #00468b"/>
     <use xlink:href="#m1450794f46" x="408.774793" y="129.534224" style="fill: #00468b; stroke: #00468b"/>
     <use xlink:href="#m1450794f46" x="411.657025" y="107.854722" style="fill: #00468b; stroke: #00468b"/>
     <use xlink:href="#m1450794f46" x="414.539256" y="108.619984" style="fill: #00468b; stroke: #00468b"/>
     <use xlink:href="#m1450794f46" x="417.421488" y="94.144803" style="fill: #00468b; stroke: #00468b"/>
     <use xlink:href="#m1450794f46" x="420.303719" y="87.744917" style="fill: #00468b; stroke: #00468b"/>
     <use xlink:href="#m1450794f46" x="423.18595" y="90.093467" style="fill: #00468b; stroke: #00468b"/>
     <use xlink:href="#m1450794f46" x="440.479339" y="90.286559" style="fill: #00468b; stroke: #00468b"/>
     <use xlink:href="#m1450794f46" x="457.772727" y="92.826216" style="fill: #00468b; stroke: #00468b"/>
     <use xlink:href="#m1450794f46" x="475.066116" y="94.295313" style="fill: #00468b; stroke: #00468b"/>
     <use xlink:href="#m1450794f46" x="492.359504" y="90.09303" style="fill: #00468b; stroke: #00468b"/>
     <use xlink:href="#m1450794f46" x="509.652893" y="93.084218" style="fill: #00468b; stroke: #00468b"/>
     <use xlink:href="#m1450794f46" x="532.710744" y="73.092336" style="fill: #00468b; stroke: #00468b"/>
     <use xlink:href="#m1450794f46" x="550.004132" y="107.409647" style="fill: #00468b; stroke: #00468b"/>
     <use xlink:href="#m1450794f46" x="578.826446" y="114.507412" style="fill: #00468b; stroke: #00468b"/>
     <use xlink:href="#m1450794f46" x="607.64876" y="101.563923" style="fill: #00468b; stroke: #00468b"/>
     <use xlink:href="#m1450794f46" x="636.471074" y="129.043936" style="fill: #00468b; stroke: #00468b"/>
    </g>
   </g>
   <g id="PathCollection_4">
    <defs>
     <path id="m176c8e47c8" d="M 0 3 
C 0.795609 3 1.55874 2.683901 2.12132 2.12132 
C 2.683901 1.55874 3 0.795609 3 0 
C 3 -0.795609 2.683901 -1.55874 2.12132 -2.12132 
C 1.55874 -2.683901 0.795609 -3 0 -3 
C -0.795609 -3 -1.55874 -2.683901 -2.12132 -2.12132 
C -2.683901 -1.55874 -3 -0.795609 -3 0 
C -3 0.795609 -2.683901 1.55874 -2.12132 2.12132 
C -1.55874 2.683901 -0.795609 3 0 3 
z
" style="stroke: #ed0000"/>
    </defs>
    <g clip-path="url(#p217b43d7b5)">
     <use xlink:href="#m176c8e47c8" x="405.892562" y="209.346743" style="fill: #ed0000; stroke: #ed0000"/>
     <use xlink:href="#m176c8e47c8" x="408.774793" y="205.722956" style="fill: #ed0000; stroke: #ed0000"/>
     <use xlink:href="#m176c8e47c8" x="411.657025" y="210.699088" style="fill: #ed0000; stroke: #ed0000"/>
     <use xlink:href="#m176c8e47c8" x="414.539256" y="213.264005" style="fill: #ed0000; stroke: #ed0000"/>
     <use xlink:href="#m176c8e47c8" x="417.421488" y="212.204383" style="fill: #ed0000; stroke: #ed0000"/>
     <use xlink:href="#m176c8e47c8" x="420.303719" y="219.130281" style="fill: #ed0000; stroke: #ed0000"/>
     <use xlink:href="#m176c8e47c8" x="423.18595" y="223.916207" style="fill: #ed0000; stroke: #ed0000"/>
     <use xlink:href="#m176c8e47c8" x="440.479339" y="226.677963" style="fill: #ed0000; stroke: #ed0000"/>
     <use xlink:href="#m176c8e47c8" x="457.772727" y="220.169113" style="fill: #ed0000; stroke: #ed0000"/>
     <use xlink:href="#m176c8e47c8" x="475.066116" y="220.149236" style="fill: #ed0000; stroke: #ed0000"/>
     <use xlink:href="#m176c8e47c8" x="492.359504" y="222.233489" style="fill: #ed0000; stroke: #ed0000"/>
     <use xlink:href="#m176c8e47c8" x="509.652893" y="219.962808" style="fill: #ed0000; stroke: #ed0000"/>
     <use xlink:href="#m176c8e47c8" x="532.710744" y="210.048295" style="fill: #ed0000; stroke: #ed0000"/>
     <use xlink:href="#m176c8e47c8" x="550.004132" y="209.826346" style="fill: #ed0000; stroke: #ed0000"/>
     <use xlink:href="#m176c8e47c8" x="578.826446" y="207.616395" style="fill: #ed0000; stroke: #ed0000"/>
     <use xlink:href="#m176c8e47c8" x="607.64876" y="215.731617" style="fill: #ed0000; stroke: #ed0000"/>
     <use xlink:href="#m176c8e47c8" x="636.471074" y="209.346743" style="fill: #ed0000; stroke: #ed0000"/>
    </g>
   </g>
   <g id="PathCollection_5">
    <defs>
     <path id="mc5e67232dc" d="M 0 3 
C 0.795609 3 1.55874 2.683901 2.12132 2.12132 
C 2.683901 1.55874 3 0.795609 3 0 
C 3 -0.795609 2.683901 -1.55874 2.12132 -2.12132 
C 1.55874 -2.683901 0.795609 -3 0 -3 
C -0.795609 -3 -1.55874 -2.683901 -2.12132 -2.12132 
C -2.683901 -1.55874 -3 -0.795609 -3 0 
C -3 0.795609 -2.683901 1.55874 -2.12132 2.12132 
C -1.55874 2.683901 -0.795609 3 0 3 
z
" style="stroke: #925e9f"/>
    </defs>
    <g clip-path="url(#p217b43d7b5)">
     <use xlink:href="#mc5e67232dc" x="405.892562" y="241.601045" style="fill: #925e9f; stroke: #925e9f"/>
     <use xlink:href="#mc5e67232dc" x="408.774793" y="240.501584" style="fill: #925e9f; stroke: #925e9f"/>
     <use xlink:href="#mc5e67232dc" x="411.657025" y="244.008444" style="fill: #925e9f; stroke: #925e9f"/>
     <use xlink:href="#mc5e67232dc" x="414.539256" y="245.196941" style="fill: #925e9f; stroke: #925e9f"/>
     <use xlink:href="#mc5e67232dc" x="417.421488" y="245.593308" style="fill: #925e9f; stroke: #925e9f"/>
     <use xlink:href="#mc5e67232dc" x="420.303719" y="247.402708" style="fill: #925e9f; stroke: #925e9f"/>
     <use xlink:href="#mc5e67232dc" x="423.18595" y="249.371121" style="fill: #925e9f; stroke: #925e9f"/>
     <use xlink:href="#mc5e67232dc" x="440.479339" y="249.683101" style="fill: #925e9f; stroke: #925e9f"/>
     <use xlink:href="#mc5e67232dc" x="457.772727" y="247.785918" style="fill: #925e9f; stroke: #925e9f"/>
     <use xlink:href="#mc5e67232dc" x="475.066116" y="247.498551" style="fill: #925e9f; stroke: #925e9f"/>
     <use xlink:href="#mc5e67232dc" x="492.359504" y="248.450842" style="fill: #925e9f; stroke: #925e9f"/>
     <use xlink:href="#mc5e67232dc" x="509.652893" y="247.459925" style="fill: #925e9f; stroke: #925e9f"/>
     <use xlink:href="#mc5e67232dc" x="532.710744" y="244.494836" style="fill: #925e9f; stroke: #925e9f"/>
     <use xlink:href="#mc5e67232dc" x="550.004132" y="245.055573" style="fill: #925e9f; stroke: #925e9f"/>
     <use xlink:href="#mc5e67232dc" x="578.826446" y="242.771455" style="fill: #925e9f; stroke: #925e9f"/>
     <use xlink:href="#mc5e67232dc" x="607.64876" y="245.934314" style="fill: #925e9f; stroke: #925e9f"/>
     <use xlink:href="#mc5e67232dc" x="636.471074" y="241.601045" style="fill: #925e9f; stroke: #925e9f"/>
    </g>
   </g>
   <g id="matplotlib.axis_3">
    <g id="xtick_6">
     <g id="line2d_15">
      <g>
       <use xlink:href="#m8e58e2907a" x="405.892562" y="256.32" style="stroke: #000000; stroke-width: 0.8"/>
      </g>
     </g>
     <g id="text_17">
      <!-- 0 -->
      <g transform="translate(402.711312 270.918437) scale(0.1 -0.1)">
       <use xlink:href="#DejaVuSans-30"/>
      </g>
     </g>
    </g>
    <g id="xtick_7">
     <g id="line2d_16">
      <g>
       <use xlink:href="#m8e58e2907a" x="463.53719" y="256.32" style="stroke: #000000; stroke-width: 0.8"/>
      </g>
     </g>
     <g id="text_18">
      <!-- 100 -->
      <g transform="translate(453.99344 270.918437) scale(0.1 -0.1)">
       <use xlink:href="#DejaVuSans-31"/>
       <use xlink:href="#DejaVuSans-30" x="63.623047"/>
       <use xlink:href="#DejaVuSans-30" x="127.246094"/>
      </g>
     </g>
    </g>
    <g id="xtick_8">
     <g id="line2d_17">
      <g>
       <use xlink:href="#m8e58e2907a" x="521.181818" y="256.32" style="stroke: #000000; stroke-width: 0.8"/>
      </g>
     </g>
     <g id="text_19">
      <!-- 200 -->
      <g transform="translate(511.638068 270.918437) scale(0.1 -0.1)">
       <use xlink:href="#DejaVuSans-32"/>
       <use xlink:href="#DejaVuSans-30" x="63.623047"/>
       <use xlink:href="#DejaVuSans-30" x="127.246094"/>
      </g>
     </g>
    </g>
    <g id="xtick_9">
     <g id="line2d_18">
      <g>
       <use xlink:href="#m8e58e2907a" x="578.826446" y="256.32" style="stroke: #000000; stroke-width: 0.8"/>
      </g>
     </g>
     <g id="text_20">
      <!-- 300 -->
      <g transform="translate(569.282696 270.918437) scale(0.1 -0.1)">
       <use xlink:href="#DejaVuSans-33"/>
       <use xlink:href="#DejaVuSans-30" x="63.623047"/>
       <use xlink:href="#DejaVuSans-30" x="127.246094"/>
      </g>
     </g>
    </g>
    <g id="xtick_10">
     <g id="line2d_19">
      <g>
       <use xlink:href="#m8e58e2907a" x="636.471074" y="256.32" style="stroke: #000000; stroke-width: 0.8"/>
      </g>
     </g>
     <g id="text_21">
      <!-- 400 -->
      <g transform="translate(626.927324 270.918437) scale(0.1 -0.1)">
       <use xlink:href="#DejaVuSans-34"/>
       <use xlink:href="#DejaVuSans-30" x="63.623047"/>
       <use xlink:href="#DejaVuSans-30" x="127.246094"/>
      </g>
     </g>
    </g>
    <g id="text_22">
     <!-- Time (in seconds) -->
     <g transform="translate(476.873224 284.596563) scale(0.1 -0.1)">
      <use xlink:href="#DejaVuSans-54"/>
      <use xlink:href="#DejaVuSans-69" x="57.958984"/>
      <use xlink:href="#DejaVuSans-6d" x="85.742188"/>
      <use xlink:href="#DejaVuSans-65" x="183.154297"/>
      <use xlink:href="#DejaVuSans-20" x="244.677734"/>
      <use xlink:href="#DejaVuSans-28" x="276.464844"/>
      <use xlink:href="#DejaVuSans-69" x="315.478516"/>
      <use xlink:href="#DejaVuSans-6e" x="343.261719"/>
      <use xlink:href="#DejaVuSans-20" x="406.640625"/>
      <use xlink:href="#DejaVuSans-73" x="438.427734"/>
      <use xlink:href="#DejaVuSans-65" x="490.527344"/>
      <use xlink:href="#DejaVuSans-63" x="552.050781"/>
      <use xlink:href="#DejaVuSans-6f" x="607.03125"/>
      <use xlink:href="#DejaVuSans-6e" x="668.212891"/>
      <use xlink:href="#DejaVuSans-64" x="731.591797"/>
      <use xlink:href="#DejaVuSans-73" x="795.068359"/>
      <use xlink:href="#DejaVuSans-29" x="847.167969"/>
     </g>
    </g>
   </g>
   <g id="matplotlib.axis_4">
    <g id="ytick_9">
     <g id="line2d_20">
      <g>
       <use xlink:href="#mbd985ac362" x="394.363636" y="256.32" style="stroke: #000000; stroke-width: 0.8"/>
      </g>
     </g>
     <g id="text_23">
      <!-- 0 -->
      <g transform="translate(381.001136 260.119219) scale(0.1 -0.1)">
       <use xlink:href="#DejaVuSans-30"/>
      </g>
     </g>
    </g>
    <g id="ytick_10">
     <g id="line2d_21">
      <g>
       <use xlink:href="#mbd985ac362" x="394.363636" y="222.203077" style="stroke: #000000; stroke-width: 0.8"/>
      </g>
     </g>
     <g id="text_24">
      <!-- 1 -->
      <g transform="translate(381.001136 226.002296) scale(0.1 -0.1)">
       <use xlink:href="#DejaVuSans-31"/>
      </g>
     </g>
    </g>
    <g id="ytick_11">
     <g id="line2d_22">
      <g>
       <use xlink:href="#mbd985ac362" x="394.363636" y="188.086154" style="stroke: #000000; stroke-width: 0.8"/>
      </g>
     </g>
     <g id="text_25">
      <!-- 2 -->
      <g transform="translate(381.001136 191.885373) scale(0.1 -0.1)">
       <use xlink:href="#DejaVuSans-32"/>
      </g>
     </g>
    </g>
    <g id="ytick_12">
     <g id="line2d_23">
      <g>
       <use xlink:href="#mbd985ac362" x="394.363636" y="153.969231" style="stroke: #000000; stroke-width: 0.8"/>
      </g>
     </g>
     <g id="text_26">
      <!-- 3 -->
      <g transform="translate(381.001136 157.76845) scale(0.1 -0.1)">
       <use xlink:href="#DejaVuSans-33"/>
      </g>
     </g>
    </g>
    <g id="ytick_13">
     <g id="line2d_24">
      <g>
       <use xlink:href="#mbd985ac362" x="394.363636" y="119.852308" style="stroke: #000000; stroke-width: 0.8"/>
      </g>
     </g>
     <g id="text_27">
      <!-- 4 -->
      <g transform="translate(381.001136 123.651526) scale(0.1 -0.1)">
       <use xlink:href="#DejaVuSans-34"/>
      </g>
     </g>
    </g>
    <g id="ytick_14">
     <g id="line2d_25">
      <g>
       <use xlink:href="#mbd985ac362" x="394.363636" y="85.735385" style="stroke: #000000; stroke-width: 0.8"/>
      </g>
     </g>
     <g id="text_28">
      <!-- 5 -->
      <g transform="translate(381.001136 89.534603) scale(0.1 -0.1)">
       <use xlink:href="#DejaVuSans-35"/>
      </g>
     </g>
    </g>
    <g id="ytick_15">
     <g id="line2d_26">
      <g>
       <use xlink:href="#mbd985ac362" x="394.363636" y="51.618462" style="stroke: #000000; stroke-width: 0.8"/>
      </g>
     </g>
     <g id="text_29">
      <!-- 6 -->
      <g transform="translate(381.001136 55.41768) scale(0.1 -0.1)">
       <defs>
        <path id="DejaVuSans-36" d="M 2113 2584 
Q 1688 2584 1439 2293 
Q 1191 2003 1191 1497 
Q 1191 994 1439 701 
Q 1688 409 2113 409 
Q 2538 409 2786 701 
Q 3034 994 3034 1497 
Q 3034 2003 2786 2293 
Q 2538 2584 2113 2584 
z
M 3366 4563 
L 3366 3988 
Q 3128 4100 2886 4159 
Q 2644 4219 2406 4219 
Q 1781 4219 1451 3797 
Q 1122 3375 1075 2522 
Q 1259 2794 1537 2939 
Q 1816 3084 2150 3084 
Q 2853 3084 3261 2657 
Q 3669 2231 3669 1497 
Q 3669 778 3244 343 
Q 2819 -91 2113 -91 
Q 1303 -91 875 529 
Q 447 1150 447 2328 
Q 447 3434 972 4092 
Q 1497 4750 2381 4750 
Q 2619 4750 2861 4703 
Q 3103 4656 3366 4563 
z
" transform="scale(0.015625)"/>
       </defs>
       <use xlink:href="#DejaVuSans-36"/>
      </g>
     </g>
    </g>
    <g id="text_30">
     <!-- Concentration (in mM) -->
     <g transform="translate(374.921449 201.632969) rotate(-90) scale(0.1 -0.1)">
      <use xlink:href="#DejaVuSans-43"/>
      <use xlink:href="#DejaVuSans-6f" x="69.824219"/>
      <use xlink:href="#DejaVuSans-6e" x="131.005859"/>
      <use xlink:href="#DejaVuSans-63" x="194.384766"/>
      <use xlink:href="#DejaVuSans-65" x="249.365234"/>
      <use xlink:href="#DejaVuSans-6e" x="310.888672"/>
      <use xlink:href="#DejaVuSans-74" x="374.267578"/>
      <use xlink:href="#DejaVuSans-72" x="413.476562"/>
      <use xlink:href="#DejaVuSans-61" x="454.589844"/>
      <use xlink:href="#DejaVuSans-74" x="515.869141"/>
      <use xlink:href="#DejaVuSans-69" x="555.078125"/>
      <use xlink:href="#DejaVuSans-6f" x="582.861328"/>
      <use xlink:href="#DejaVuSans-6e" x="644.042969"/>
      <use xlink:href="#DejaVuSans-20" x="707.421875"/>
      <use xlink:href="#DejaVuSans-28" x="739.208984"/>
      <use xlink:href="#DejaVuSans-69" x="778.222656"/>
      <use xlink:href="#DejaVuSans-6e" x="806.005859"/>
      <use xlink:href="#DejaVuSans-20" x="869.384766"/>
      <use xlink:href="#DejaVuSans-6d" x="901.171875"/>
      <use xlink:href="#DejaVuSans-4d" x="998.583984"/>
      <use xlink:href="#DejaVuSans-29" x="1084.863281"/>
     </g>
    </g>
   </g>
   <g id="line2d_27">
    <path d="M 405.892562 129.043936 
L 408.918905 129.45066 
L 409.114897 129.011119 
L 409.414649 127.700396 
L 409.858512 124.628507 
L 410.607893 117.614252 
L 411.760785 107.13139 
L 412.152769 105.33965 
L 412.452521 104.818793 
L 412.665806 104.803544 
L 412.896384 105.048094 
L 413.259545 105.820091 
L 414.44126 108.568901 
L 414.66031 108.599486 
L 414.856302 108.355629 
L 415.144525 107.577624 
L 415.571095 105.686668 
L 416.262831 101.43665 
L 417.55407 93.512333 
L 418.118988 91.473205 
L 418.67814 90.234491 
L 419.398698 89.208294 
L 420.159607 88.045733 
L 420.741818 87.145659 
L 421.030041 87.103266 
L 421.341322 87.300386 
L 421.779421 87.88068 
L 423.376178 90.245126 
L 424.638595 91.089242 
L 425.918306 91.680801 
L 427.244132 92.049122 
L 428.66219 92.209681 
L 430.241653 92.159543 
L 432.143926 91.866052 
L 435.135682 91.143861 
L 438.254256 90.462196 
L 440.087355 90.289161 
L 442.197149 90.349747 
L 445.24655 90.647272 
L 449.126033 91.263067 
L 460.061219 93.127283 
L 464.926426 93.58618 
L 476.334298 94.344285 
L 478.207748 94.221859 
L 480.311777 93.855568 
L 482.836612 93.17983 
L 486.595041 91.913893 
L 491.344959 90.357938 
L 493.483574 89.878691 
L 495.137975 89.75941 
L 496.948017 89.856517 
L 499.017459 90.197148 
L 501.62876 90.86619 
L 509.681715 93.089129 
L 510.81155 93.166568 
L 511.981736 93.022496 
L 513.221095 92.641736 
L 514.55845 91.992834 
L 516.039917 91.018693 
L 517.711612 89.643502 
L 519.665764 87.735784 
L 522.121426 85.00854 
L 526.744525 79.455318 
L 529.989917 75.745877 
L 532.191942 73.55402 
L 533.298719 72.694612 
L 533.93281 72.507863 
L 534.555372 72.555244 
L 535.206756 72.834461 
L 535.927314 73.3981 
L 536.745868 74.336766 
L 537.697004 75.786143 
L 538.81531 77.919678 
L 540.164194 81.00216 
L 541.882004 85.5233 
L 544.741178 93.788534 
L 547.61188 101.849328 
L 549.272045 105.87225 
L 550.632459 108.609411 
L 552.062045 111.000849 
L 553.451281 112.902724 
L 554.80593 114.389093 
L 556.137521 115.526378 
L 557.457583 116.366308 
L 558.789174 116.952984 
L 560.161116 117.314923 
L 561.607996 117.465383 
L 563.187459 117.402594 
L 564.9975 117.101321 
L 567.285992 116.481262 
L 574.232169 114.446029 
L 576.019153 114.245064 
L 577.575558 114.289635 
L 579.022438 114.553829 
L 580.590372 114.796262 
L 582.210186 114.82067 
L 583.916467 114.621183 
L 585.738037 114.180908 
L 587.732541 113.464793 
L 589.969153 112.418699 
L 592.603512 110.930744 
L 596.085248 108.688501 
L 604.311136 103.300404 
L 606.985847 101.871981 
L 608.582603 101.228049 
L 609.706674 101.037199 
L 610.853802 101.068732 
L 612.041281 101.325985 
L 613.303698 101.831268 
L 614.669876 102.624088 
L 616.174401 103.762928 
L 617.857624 105.325911 
L 619.788719 107.434507 
L 622.100269 110.303652 
L 625.213079 114.551862 
L 632.372541 124.435115 
L 634.741736 127.258342 
L 636.46531 129.038438 
L 636.46531 129.038438 
" clip-path="url(#p217b43d7b5)" style="fill: none; stroke: #00468b; stroke-width: 1.5; stroke-linecap: square"/>
   </g>
   <g id="line2d_28">
    <path d="M 405.892562 209.346743 
L 409.074545 205.522442 
L 409.333946 205.604483 
L 409.650992 205.969255 
L 410.112149 206.885466 
L 412.164298 211.438653 
L 412.867562 212.117029 
L 414.158802 212.961903 
L 415.121467 213.516202 
L 415.57686 213.417001 
L 416.205186 213.024626 
L 417.490661 212.188041 
L 417.744298 212.274827 
L 418.049814 212.649661 
L 418.482149 213.579338 
L 419.185413 215.707303 
L 420.419008 219.400605 
L 421.243326 221.007409 
L 422.413512 222.746088 
L 425.382211 226.779028 
L 426.454401 227.664477 
L 427.520826 228.26147 
L 428.604545 228.615976 
L 429.751674 228.756626 
L 431.02562 228.684324 
L 432.558967 228.363821 
L 434.928161 227.607293 
L 437.585579 226.820943 
L 439.084339 226.610442 
L 440.329463 226.65596 
L 442.093388 226.78175 
L 443.574855 226.631409 
L 445.206198 226.236924 
L 447.079649 225.546565 
L 449.402727 224.439991 
L 454.302521 221.773614 
L 457.006054 220.475085 
L 458.902562 219.797454 
L 460.672252 219.412048 
L 462.609112 219.221917 
L 464.839959 219.233712 
L 467.751012 219.487709 
L 474.408967 220.140977 
L 479.458636 220.381207 
L 483.424587 220.885143 
L 494.077314 222.358852 
L 496.279339 222.309142 
L 498.832996 222.021652 
L 502.199442 221.401779 
L 509.670186 219.96053 
L 511.803037 219.566299 
L 514.137645 218.903549 
L 516.772004 217.917725 
L 519.919401 216.492051 
L 524.432975 214.176554 
L 531.154339 210.746785 
L 533.800227 209.635295 
L 535.48345 209.197236 
L 537.305021 208.955866 
L 539.368698 208.912376 
L 541.939649 209.092637 
L 550.050248 209.825744 
L 555.313202 209.644844 
L 561.717521 209.191714 
L 573.188802 208.10529 
L 580.181095 207.557072 
L 582.423471 207.642154 
L 584.838781 207.960256 
L 587.501963 208.540565 
L 590.557128 209.44154 
L 594.373202 210.812185 
L 607.078079 215.566967 
L 609.274339 216.099668 
L 611.18814 216.317699 
L 613.211467 216.321868 
L 615.390434 216.100107 
L 617.799979 215.625962 
L 620.57845 214.845077 
L 624.123595 213.603138 
L 634.245992 209.919402 
L 636.46531 209.348021 
L 636.46531 209.348021 
" clip-path="url(#p217b43d7b5)" style="fill: none; stroke: #ed0000; stroke-width: 1.5; stroke-linecap: square"/>
   </g>
   <g id="line2d_29">
    <path d="M 405.892562 241.601045 
L 409.109132 240.490822 
L 409.478058 240.714884 
L 409.973802 241.306896 
L 410.873058 242.80648 
L 411.772314 244.141448 
L 412.366054 244.625049 
L 413.034731 244.878506 
L 416.291653 245.511939 
L 417.813471 245.69593 
L 418.534029 246.086111 
L 422.776674 249.088855 
L 424.442603 250.112327 
L 425.82031 250.677242 
L 427.261426 251.027732 
L 428.823595 251.175685 
L 430.59905 251.113797 
L 432.824132 250.800767 
L 439.597376 249.695572 
L 447.448574 249.235844 
L 453.201508 248.400963 
L 458.573988 247.704767 
L 462.113368 247.487109 
L 466.70188 247.443095 
L 481.562665 247.67477 
L 489.788554 248.285943 
L 494.509649 248.512899 
L 497.974091 248.416859 
L 502.758595 248.040689 
L 511.693512 247.318386 
L 516.558719 246.813471 
L 523.239731 245.876172 
L 534.053864 244.354408 
L 536.780455 244.243633 
L 540.071963 244.342544 
L 545.4675 244.767114 
L 550.378822 245.066641 
L 554.344773 245.06131 
L 558.887169 244.826365 
L 564.617045 244.29415 
L 580.728719 242.666592 
L 583.893409 242.676997 
L 587.438554 242.916278 
L 591.65814 243.43314 
L 597.826116 244.439377 
L 605.959773 245.731362 
L 609.476095 246.076487 
L 612.15657 246.090938 
L 615.090682 245.880506 
L 618.43407 245.411335 
L 622.561426 244.595593 
L 636.46531 241.601912 
L 636.46531 241.601912 
" clip-path="url(#p217b43d7b5)" style="fill: none; stroke: #925e9f; stroke-width: 1.5; stroke-linecap: square"/>
   </g>
   <g id="patch_9">
    <path d="M 394.363636 256.32 
L 394.363636 34.56 
" style="fill: none; stroke: #000000; stroke-width: 0.8; stroke-linejoin: miter; stroke-linecap: square"/>
   </g>
   <g id="patch_10">
    <path d="M 648 256.32 
L 648 34.56 
" style="fill: none; stroke: #000000; stroke-width: 0.8; stroke-linejoin: miter; stroke-linecap: square"/>
   </g>
   <g id="patch_11">
    <path d="M 394.363636 256.32 
L 648 256.32 
" style="fill: none; stroke: #000000; stroke-width: 0.8; stroke-linejoin: miter; stroke-linecap: square"/>
   </g>
   <g id="patch_12">
    <path d="M 394.363636 34.56 
L 648 34.56 
" style="fill: none; stroke: #000000; stroke-width: 0.8; stroke-linejoin: miter; stroke-linecap: square"/>
   </g>
   <g id="legend_2">
    <g id="patch_13">
     <path d="M 577.56875 86.594375 
L 641 86.594375 
Q 643 86.594375 643 84.594375 
L 643 41.56 
Q 643 39.56 641 39.56 
L 577.56875 39.56 
Q 575.56875 39.56 575.56875 41.56 
L 575.56875 84.594375 
Q 575.56875 86.594375 577.56875 86.594375 
z
" style="fill: #ffffff; opacity: 0.8; stroke: #cccccc; stroke-linejoin: miter"/>
    </g>
    <g id="PathCollection_6">
     <g>
      <use xlink:href="#m1450794f46" x="589.56875" y="48.533438" style="fill: #00468b; stroke: #00468b"/>
     </g>
    </g>
    <g id="text_31">
     <!-- ICATP -->
     <g transform="translate(607.56875 51.158438) scale(0.1 -0.1)">
      <defs>
       <path id="DejaVuSans-49" d="M 628 4666 
L 1259 4666 
L 1259 0 
L 628 0 
L 628 4666 
z
" transform="scale(0.015625)"/>
       <path id="DejaVuSans-41" d="M 2188 4044 
L 1331 1722 
L 3047 1722 
L 2188 4044 
z
M 1831 4666 
L 2547 4666 
L 4325 0 
L 3669 0 
L 3244 1197 
L 1141 1197 
L 716 0 
L 50 0 
L 1831 4666 
z
" transform="scale(0.015625)"/>
       <path id="DejaVuSans-50" d="M 1259 4147 
L 1259 2394 
L 2053 2394 
Q 2494 2394 2734 2622 
Q 2975 2850 2975 3272 
Q 2975 3691 2734 3919 
Q 2494 4147 2053 4147 
L 1259 4147 
z
M 628 4666 
L 2053 4666 
Q 2838 4666 3239 4311 
Q 3641 3956 3641 3272 
Q 3641 2581 3239 2228 
Q 2838 1875 2053 1875 
L 1259 1875 
L 1259 0 
L 628 0 
L 628 4666 
z
" transform="scale(0.015625)"/>
      </defs>
      <use xlink:href="#DejaVuSans-49"/>
      <use xlink:href="#DejaVuSans-43" x="29.492188"/>
      <use xlink:href="#DejaVuSans-41" x="99.316406"/>
      <use xlink:href="#DejaVuSans-54" x="159.974609"/>
      <use xlink:href="#DejaVuSans-50" x="221.058594"/>
     </g>
    </g>
    <g id="PathCollection_7">
     <g>
      <use xlink:href="#m176c8e47c8" x="589.56875" y="63.211563" style="fill: #ed0000; stroke: #ed0000"/>
     </g>
    </g>
    <g id="text_32">
     <!-- ICADP -->
     <g transform="translate(607.56875 65.836563) scale(0.1 -0.1)">
      <defs>
       <path id="DejaVuSans-44" d="M 1259 4147 
L 1259 519 
L 2022 519 
Q 2988 519 3436 956 
Q 3884 1394 3884 2338 
Q 3884 3275 3436 3711 
Q 2988 4147 2022 4147 
L 1259 4147 
z
M 628 4666 
L 1925 4666 
Q 3281 4666 3915 4102 
Q 4550 3538 4550 2338 
Q 4550 1131 3912 565 
Q 3275 0 1925 0 
L 628 0 
L 628 4666 
z
" transform="scale(0.015625)"/>
      </defs>
      <use xlink:href="#DejaVuSans-49"/>
      <use xlink:href="#DejaVuSans-43" x="29.492188"/>
      <use xlink:href="#DejaVuSans-41" x="99.316406"/>
      <use xlink:href="#DejaVuSans-44" x="167.724609"/>
      <use xlink:href="#DejaVuSans-50" x="244.726562"/>
     </g>
    </g>
    <g id="PathCollection_8">
     <g>
      <use xlink:href="#mc5e67232dc" x="589.56875" y="77.889688" style="fill: #925e9f; stroke: #925e9f"/>
     </g>
    </g>
    <g id="text_33">
     <!-- ICAMP -->
     <g transform="translate(607.56875 80.514688) scale(0.1 -0.1)">
      <use xlink:href="#DejaVuSans-49"/>
      <use xlink:href="#DejaVuSans-43" x="29.492188"/>
      <use xlink:href="#DejaVuSans-41" x="99.316406"/>
      <use xlink:href="#DejaVuSans-4d" x="167.724609"/>
      <use xlink:href="#DejaVuSans-50" x="254.003906"/>
     </g>
    </g>
   </g>
  </g>
  <g id="text_34">
   <!-- Interpolated metabolites -->
   <g transform="translate(273.414375 16.397812) scale(0.14 -0.14)">
    <defs>
     <path id="DejaVuSans-70" d="M 1159 525 
L 1159 -1331 
L 581 -1331 
L 581 3500 
L 1159 3500 
L 1159 2969 
Q 1341 3281 1617 3432 
Q 1894 3584 2278 3584 
Q 2916 3584 3314 3078 
Q 3713 2572 3713 1747 
Q 3713 922 3314 415 
Q 2916 -91 2278 -91 
Q 1894 -91 1617 61 
Q 1341 213 1159 525 
z
M 3116 1747 
Q 3116 2381 2855 2742 
Q 2594 3103 2138 3103 
Q 1681 3103 1420 2742 
Q 1159 2381 1159 1747 
Q 1159 1113 1420 752 
Q 1681 391 2138 391 
Q 2594 391 2855 752 
Q 3116 1113 3116 1747 
z
" transform="scale(0.015625)"/>
     <path id="DejaVuSans-62" d="M 3116 1747 
Q 3116 2381 2855 2742 
Q 2594 3103 2138 3103 
Q 1681 3103 1420 2742 
Q 1159 2381 1159 1747 
Q 1159 1113 1420 752 
Q 1681 391 2138 391 
Q 2594 391 2855 752 
Q 3116 1113 3116 1747 
z
M 1159 2969 
Q 1341 3281 1617 3432 
Q 1894 3584 2278 3584 
Q 2916 3584 3314 3078 
Q 3713 2572 3713 1747 
Q 3713 922 3314 415 
Q 2916 -91 2278 -91 
Q 1894 -91 1617 61 
Q 1341 213 1159 525 
L 1159 0 
L 581 0 
L 581 4863 
L 1159 4863 
L 1159 2969 
z
" transform="scale(0.015625)"/>
    </defs>
    <use xlink:href="#DejaVuSans-49"/>
    <use xlink:href="#DejaVuSans-6e" x="29.492188"/>
    <use xlink:href="#DejaVuSans-74" x="92.871094"/>
    <use xlink:href="#DejaVuSans-65" x="132.080078"/>
    <use xlink:href="#DejaVuSans-72" x="193.603516"/>
    <use xlink:href="#DejaVuSans-70" x="234.716797"/>
    <use xlink:href="#DejaVuSans-6f" x="298.193359"/>
    <use xlink:href="#DejaVuSans-6c" x="359.375"/>
    <use xlink:href="#DejaVuSans-61" x="387.158203"/>
    <use xlink:href="#DejaVuSans-74" x="448.4375"/>
    <use xlink:href="#DejaVuSans-65" x="487.646484"/>
    <use xlink:href="#DejaVuSans-64" x="549.169922"/>
    <use xlink:href="#DejaVuSans-20" x="612.646484"/>
    <use xlink:href="#DejaVuSans-6d" x="644.433594"/>
    <use xlink:href="#DejaVuSans-65" x="741.845703"/>
    <use xlink:href="#DejaVuSans-74" x="803.369141"/>
    <use xlink:href="#DejaVuSans-61" x="842.578125"/>
    <use xlink:href="#DejaVuSans-62" x="903.857422"/>
    <use xlink:href="#DejaVuSans-6f" x="967.333984"/>
    <use xlink:href="#DejaVuSans-6c" x="1028.515625"/>
    <use xlink:href="#DejaVuSans-69" x="1056.298828"/>
    <use xlink:href="#DejaVuSans-74" x="1084.082031"/>
    <use xlink:href="#DejaVuSans-65" x="1123.291016"/>
    <use xlink:href="#DejaVuSans-73" x="1184.814453"/>
   </g>
  </g>
 </g>
 <defs>
  <clipPath id="p0b33f5e8d0">
   <rect x="90" y="34.56" width="253.636364" height="221.76"/>
  </clipPath>
  <clipPath id="p217b43d7b5">
   <rect x="394.363636" y="34.56" width="253.636364" height="221.76"/>
  </clipPath>
 </defs>
</svg>
